<svg width="96" height="96" xmlns="http://www.w3.org/2000/svg" xmlns:xlink="http://www.w3.org/1999/xlink" xml:space="preserve" overflow="hidden"><g transform="translate(-305 -303)"><path d="M347.772 323.951 347.772 323.951C342.401 323.982 338.036 328.293 337.937 333.663L337.937 334.032C337.98 335.21 338.216 336.374 338.637 337.475 339.027 338.466 339.59 339.38 340.299 340.175 341.426 341.534 342.392 343.019 343.176 344.601L352.363 344.601C353.148 343.02 354.113 341.534 355.24 340.175 355.949 339.38 356.512 338.466 356.903 337.475 357.323 336.373 357.56 335.21 357.603 334.032L357.603 333.663C357.501 328.296 353.14 323.987 347.772 323.951Z" fill="#39D3BA"/><path d="M386.005 352.3 379.105 340.3 379.105 339.8C379.711 323.204 366.748 309.259 350.151 308.653 333.555 308.048 319.611 321.011 319.005 337.607 318.978 338.338 318.978 339.069 319.005 339.8 318.966 349.262 323.327 358.204 330.805 364L330.805 389.3 362.405 389.3 362.405 377.3 367.305 377.3C373.822 377.301 379.106 372.019 379.107 365.502 379.107 365.435 379.106 365.367 379.105 365.3L379.105 359.3 383.505 359.3C386.105 359 388.405 356 386.005 352.3ZM347.772 357.558C346.097 357.56 344.703 356.273 344.572 354.603L350.965 354.603C350.834 356.27 349.444 357.556 347.772 357.558ZM352.178 352.558 343.366 352.558C342.551 352.537 341.908 351.859 341.929 351.044 341.949 350.259 342.581 349.627 343.366 349.607L352.178 349.607C352.993 349.628 353.636 350.306 353.615 351.121 353.595 351.906 352.963 352.538 352.178 352.558ZM360.558 334.084C360.511 335.599 360.21 337.095 359.668 338.51 359.15 339.846 358.397 341.079 357.445 342.15 356.261 343.649 355.256 345.281 354.451 347.013 354.285 347.347 353.943 347.559 353.57 347.559L341.97 347.559C341.597 347.559 341.256 347.347 341.09 347.013 340.283 345.281 339.276 343.649 338.09 342.15 337.138 341.079 336.385 339.846 335.867 338.51 335.326 337.095 335.025 335.599 334.977 334.084L334.977 333.642C335.103 326.654 340.782 321.043 347.771 321L347.771 321C354.757 321.046 360.431 326.655 360.558 333.639Z" fill="#39D3BA"/></g></svg>