<?xml version="1.0"?>
<svg viewBox="0 0 1092.638 224.42336" width="1092.6381" height="224.42336" version="1.1" id="svg4" xmlns:inkscape="http://www.inkscape.org/namespaces/inkscape" xmlns:sodipodi="http://sodipodi.sourceforge.net/DTD/sodipodi-0.dtd" xmlns="http://www.w3.org/2000/svg" xmlns:svg="http://www.w3.org/2000/svg">
  <defs id="defs4">
    <rect x="-20.093023" y="264.55814" width="808.7442" height="66.976746" id="rect9"></rect>
    <rect x="-113.02326" y="258.69769" width="909.20935" height="86.232559" id="rect8"></rect>
    <rect x="246.13954" y="493.1163" width="549.20929" height="107.16279" id="rect7"></rect>
    <rect x="231.06978" y="466.32559" width="621.20935" height="91.255814" id="rect6"></rect>
    <rect x="246.97675" y="294.69769" width="678.13959" height="96.279076" id="rect3"></rect>
    <rect x="172.46512" y="226.04652" width="696.55817" height="97.953491" id="rect2"></rect>
  </defs>
  <namedview id="namedview4" pagecolor="#505050" bordercolor="#eeeeee" borderopacity="1" showguides="false">
    <guide position="-358.19132,140.31112" orientation="1,0" id="guide14"></guide>
  </namedview>
  
  
  <g id="g15" transform="matrix(0.74481376,0,0,0.74481376,36.643685,19.598691)" clip-path="none">
    <path d="m 272.55569,154.21373 q -15.09042,0 -26.40823,-6.63698 -11.3178,-6.637 -17.60548,-18.72329 -6.28766,-12.08631 -6.28766,-28.29454 0,-16.97671 6.56712,-28.993149 6.56713,-12.086301 17.88493,-18.443837 11.31781,-6.357534 25.43014,-6.357534 9.22191,0 17.32603,2.654795 8.1041,2.654794 14.39178,7.615068 6.28768,4.890412 10.2,11.667124 3.98219,6.776713 4.82053,15.090411 H 293.305 q -0.69864,-3.493149 -2.37535,-6.28767 -1.67671,-2.794521 -4.26163,-4.750686 -2.58494,-1.956164 -6.00822,-3.00411 -3.42329,-1.047945 -7.61507,-1.047945 -8.10412,0 -13.83289,3.842466 -5.65889,3.772603 -8.66301,10.898631 -3.0041,7.056165 -3.0041,17.116436 0,9.99042 3.0041,17.11645 3.07397,7.05616 8.80273,10.82877 5.79866,3.77259 13.97261,3.77259 6.70686,0 11.59726,-2.30546 4.89042,-2.30549 7.47535,-6.4274 2.65481,-4.19178 2.65481,-9.71097 l 5.58903,0.48904 H 274.23239 V 95.878101 h 45.41098 v 14.112339 q 0,13.20411 -6.00822,23.19453 -5.93837,9.92054 -16.55754,15.50959 -10.54932,5.51917 -24.52192,5.51917 z m 91.77671,0 q -11.3178,0 -19.91095,-4.89042 -8.52329,-4.96026 -13.34385,-13.69315 -4.75069,-8.73287 -4.75069,-19.98082 0,-11.24795 4.75069,-19.980828 4.82056,-8.732878 13.27397,-13.623288 8.45344,-4.960275 19.35207,-4.960275 8.31369,0 15.16027,2.794521 6.84657,2.724657 11.80686,7.824657 5.03013,5.100001 7.75478,12.086303 2.72467,6.91644 2.72467,15.30001 v 6.49726 h -66.99864 v -14.39178 h 55.75067 l -11.03834,2.93425 q 0,-4.7507 -1.74657,-8.17399 -1.74658,-3.423285 -5.03014,-5.239723 -3.2137,-1.8863 -7.7548,-1.8863 -4.5411,0 -7.82465,1.8863 -3.21371,1.816438 -5.03015,5.239723 -1.74656,3.42329 -1.74656,8.17399 v 10.61917 q 0,4.89042 1.81644,8.59314 1.88629,3.63288 5.30959,5.58905 3.49315,1.95617 8.31369,1.95617 3.56301,0 6.35754,-0.97809 2.79452,-0.97808 4.68081,-2.79451 1.88631,-1.81644 2.79453,-4.19179 h 21.58767 q -1.32739,7.40548 -6.42739,13.13424 -5.10001,5.65891 -12.8548,8.94247 -7.68493,3.21371 -16.97672,3.21371 z m 69.42055,-41.7781 v 40.10139 H 409.72007 V 78.761661 h 23.75344 v 19.771235 h -3.56303 q 3.4233,-9.780823 9.92054,-15.579452 6.49728,-5.798631 17.11647,-5.798631 8.03424,0 13.69314,3.493151 5.6589,3.423287 8.66303,9.920548 3.00409,6.49726 3.00409,15.579458 v 46.38905 h -24.03288 v -41.35891 q 0,-6.56713 -3.14382,-9.99042 -3.14385,-3.49315 -8.87261,-3.49315 -3.77261,0 -6.637,1.606849 -2.79451,1.606851 -4.33149,4.890411 -1.537,3.21371 -1.537,8.24383 z m 95.40959,41.7781 q -11.31781,0 -19.91094,-4.89042 -8.5233,-4.96026 -13.34386,-13.69315 -4.75068,-8.73287 -4.75068,-19.98082 0,-11.24795 4.75068,-19.980828 4.82056,-8.732878 13.27398,-13.623288 8.45343,-4.960275 19.35207,-4.960275 8.31368,0 15.16026,2.794521 6.84658,2.724657 11.80686,7.824657 5.03013,5.100001 7.75479,12.086303 2.72466,6.91644 2.72466,15.30001 v 6.49726 h -66.99864 v -14.39178 h 55.75068 l -11.03835,2.93425 q 0,-4.7507 -1.74657,-8.17399 -1.74659,-3.423285 -5.03015,-5.239723 -3.21368,-1.8863 -7.75479,-1.8863 -4.54108,0 -7.82465,1.8863 -3.21371,1.816438 -5.03015,5.239723 -1.74656,3.42329 -1.74656,8.17399 v 10.61917 q 0,4.89042 1.81644,8.59314 1.88629,3.63288 5.30958,5.58905 3.49316,1.95617 8.31371,1.95617 3.56301,0 6.35752,-0.97809 2.79454,-0.97808 4.68083,-2.79451 1.88631,-1.81644 2.79451,-4.19179 h 21.58769 q -1.32741,7.40548 -6.4274,13.13424 -5.1,5.65891 -12.8548,8.94247 -7.68493,3.21371 -16.97672,3.21371 z m 45.38769,-1.67671 V 78.761661 h 23.26437 v 12.994522 h 0.20959 q 2.02602,-7.056165 6.28769,-10.130137 4.33149,-3.143836 11.73698,-3.143836 1.95616,0 3.49315,0.06985 1.60684,0 3.07396,0.06985 v 19.841096 q -1.32739,-0.06985 -4.12192,-0.139725 -2.72464,-0.06985 -5.37944,-0.06985 -4.26166,0 -7.54522,1.956159 -3.28357,1.88631 -5.16985,5.58905 -1.81643,3.70274 -1.81643,8.94248 v 37.7959 z m 76.8484,1.25753 q -7.40548,0 -13.13424,-2.37536 -5.65891,-2.44519 -8.94247,-7.26574 -3.21371,-4.89041 -3.21371,-12.22602 0,-6.21782 2.23564,-10.4096 2.23561,-4.26164 6.14793,-6.91642 3.98219,-2.65481 9.15205,-3.98222 5.23974,-1.39724 11.10824,-1.88629 6.5671,-0.5589 10.54929,-1.18767 3.98221,-0.69863 5.72877,-1.88631 1.74658,-1.25753 1.74658,-3.49315 v -0.34931 q 0,-2.23562 -1.25752,-3.842469 -1.25754,-1.676711 -3.56303,-2.584931 -2.30547,-0.978082 -5.44931,-0.978082 -3.35344,0 -5.79863,1.047945 -2.44521,0.978082 -3.84247,2.864383 -1.39726,1.816434 -1.67671,4.331504 h -22.35617 q 0.5589,-8.034243 4.68083,-13.693148 4.12191,-5.728767 11.59727,-8.732877 7.5452,-3.073972 18.23422,-3.073972 8.03427,0 14.18222,1.746575 6.21778,1.676712 10.47945,5.030137 4.26163,3.283563 6.42739,8.10411 2.16574,4.750685 2.16574,10.828765 v 49.67262 h -23.47396 v -10.33974 h -0.27946 q -2.23562,3.98221 -5.23971,6.56713 -3.00413,2.51507 -6.9863,3.77261 -3.9822,1.25753 -9.22193,1.25753 z m 7.33561,-15.71918 q 3.9822,0 7.19591,-1.53699 3.28355,-1.53697 5.16986,-4.19177 1.8863,-2.72466 1.8863,-6.35754 v -6.70686 q -0.97809,0.41918 -2.30549,0.83837 -1.32739,0.41917 -3.00411,0.76849 -1.60684,0.34931 -3.563,0.69863 -1.95617,0.34932 -4.19178,0.76849 -3.21371,0.48905 -5.72879,1.537 -2.4452,1.04793 -3.91232,2.79451 -1.39725,1.67671 -1.39725,4.12191 0,2.30549 1.25752,3.91234 1.25754,1.60684 3.42329,2.51507 2.23561,0.83835 5.16986,0.83835 z M 754.98221,78.761661 V 97.345225 H 703.14384 V 78.761661 Z M 715.71918,58.641112 h 24.10273 v 69.094548 q 0,3.563 1.39727,4.89039 1.39726,1.3274 5.44931,1.3274 1.81644,0 4.47124,0 2.65479,0 3.84248,0 v 18.58357 q -1.88632,0 -5.72879,0 -3.84247,0 -7.89452,0 -13.27397,0 -19.49177,-4.96027 -6.14795,-5.03014 -6.14795,-15.78904 z m 81.47902,95.572618 q -11.3178,0 -19.91095,-4.89042 -8.5233,-4.96026 -13.34385,-13.69315 -4.75069,-8.73287 -4.75069,-19.98082 0,-11.24795 4.75069,-19.980828 4.82055,-8.732878 13.27397,-13.623288 8.45345,-4.960275 19.35206,-4.960275 8.3137,0 15.16026,2.794521 6.84659,2.724657 11.80688,7.824657 5.03013,5.100001 7.75478,12.086303 2.72466,6.91644 2.72466,15.30001 v 6.49726 h -66.99864 v -14.39178 h 55.75068 l -11.03836,2.93425 q 0,-4.7507 -1.74655,-8.17399 -1.74659,-3.423285 -5.03013,-5.239723 -3.21371,-1.8863 -7.75481,-1.8863 -4.5411,0 -7.82467,1.8863 -3.21369,1.816438 -5.03013,5.239723 -1.74656,3.42329 -1.74656,8.17399 v 10.61917 q 0,4.89042 1.81644,8.59314 1.88629,3.63288 5.30959,5.58905 3.49315,1.95617 8.31368,1.95617 3.56302,0 6.35756,-0.97809 2.79451,-0.97808 4.6808,-2.79451 1.8863,-1.81644 2.79452,-4.19179 h 21.58768 q -1.32742,7.40548 -6.42739,13.13424 -5.10001,5.65891 -12.8548,8.94247 -7.68493,3.21371 -16.97672,3.21371 z" id="text4" style="font-weight:800;font-size:96px;font-family:Inter, system-ui, &#39;-apple-system&#39;, BlinkMacSystemFont, &#39;Segoe UI&#39;, sans-serif;letter-spacing:-1;fill:#0599ad;fill-opacity:1;stroke-width:1.49041" aria-label="Generate" clip-path="none"></path>
    <g id="g14" transform="rotate(45,650.06463,-166.77185)">
      <path id="rect11-31-8-5-9" style="fill:#0599ad;fill-opacity:1;stroke:none;stroke-width:13.9048;stroke-linejoin:round;stroke-dasharray:none;stroke-opacity:1" d="m 346.34956,337 c -1.15952,0 -2.09375,0.37408 -2.09375,0.83789 v 178.32617 c 0,0.46382 0.93423,0.83594 2.09375,0.83594 h 175.81446 c 1.15952,0 2.09179,-0.37212 2.09179,-0.83594 v -22.37304 -20.07813 l -17.93164,20.34375 -0.10351,-0.0918 c -0.11311,0.38283 -0.42823,0.65862 -0.80078,0.6582 L 397.6816,494.49999 h -29.35547 c -0.86965,0 -1.57032,-0.27909 -1.57032,-0.62695 V 360.12891 c 0,-0.34786 0.70067,-0.62891 1.57032,-0.62891 h 36.69726 L 424.85738,337 Z"></path>
      <path id="rect11-31-8-5-5-2-7" style="fill:#39d3ba;fill-opacity:1;stroke:none;stroke-width:13.9048;stroke-linejoin:round;stroke-dasharray:none;stroke-opacity:1" d="m 458.18355,337 -33.34571,37.83008 v 32.40039 L 486.74409,337 Z m 61.88671,0 -95.23242,108.03711 v 24.19922 l 7.72656,0.01 1.20508,-1.36523 90.48633,-102.91211 v -27.23438 c 0,-0.4059 -0.51387,-0.73437 -1.1543,-0.73437 z m 4.18555,66.03515 -58.39844,66.24805 28.94727,0.0332 29.45117,-33.41015 z m 0,70.67774 -0.39648,0.44922 h 0.39648 z m -18.23047,20.68164 -0.11328,0.12891 h 0.11328 z"></path>
    </g>
  </g>
  <text xml:space="preserve" id="text3" style="font-style:normal;font-variant:normal;font-weight:normal;font-stretch:normal;font-size:56px;font-family:Inter;-inkscape-font-specification:&#39;Inter, @opsz=32,wght=800&#39;;font-variant-ligatures:normal;font-variant-caps:normal;font-variant-numeric:normal;font-variant-east-asian:normal;font-variation-settings:&#39;opsz&#39; 32, &#39;wght&#39; 800;writing-mode:lr-tb;direction:ltr;white-space:pre;shape-inside:url(#rect3);display:inline;fill:#0599ad;fill-opacity:1;stroke-width:20;stroke-linejoin:round"></text>
  <text xml:space="preserve" id="text6" style="font-style:normal;font-variant:normal;font-weight:normal;font-stretch:normal;font-size:56px;font-family:Inter;-inkscape-font-specification:&#39;Inter, @opsz=32,wght=800&#39;;font-variant-ligatures:normal;font-variant-caps:normal;font-variant-numeric:normal;font-variant-east-asian:normal;font-variation-settings:&#39;opsz&#39; 32, &#39;wght&#39; 800;writing-mode:lr-tb;direction:ltr;white-space:pre;shape-inside:url(#rect6);display:inline;fill:#0599ad;fill-opacity:1;stroke-width:20;stroke-linejoin:round"></text>
  <text xml:space="preserve" id="text7" style="font-style:normal;font-variant:normal;font-weight:normal;font-stretch:normal;font-size:56px;font-family:Inter;-inkscape-font-specification:&#39;Inter, @opsz=32,wght=800&#39;;font-variant-ligatures:normal;font-variant-caps:normal;font-variant-numeric:normal;font-variant-east-asian:normal;font-variation-settings:&#39;opsz&#39; 32, &#39;wght&#39; 800;writing-mode:lr-tb;direction:ltr;white-space:pre;shape-inside:url(#rect7);display:inline;fill:#0599ad;fill-opacity:1;stroke-width:20;stroke-linejoin:round"></text>
  <text xml:space="preserve" id="text8" style="font-style:normal;font-variant:normal;font-weight:normal;font-stretch:normal;font-size:64px;font-family:Inter;-inkscape-font-specification:&#39;Inter, @opsz=32,wght=800&#39;;font-variant-ligatures:normal;font-variant-caps:normal;font-variant-numeric:normal;font-variant-east-asian:normal;font-variation-settings:&#39;opsz&#39; 32, &#39;wght&#39; 800;writing-mode:lr-tb;direction:ltr;white-space:pre;shape-inside:url(#rect8);display:inline;fill:#0599ad;fill-opacity:1;stroke-width:20;stroke-linejoin:round" transform="translate(202.25555,151.74314)"></text>
  <text xml:space="preserve" id="text9" style="font-style:normal;font-variant:normal;font-weight:normal;font-stretch:normal;font-size:64px;font-family:Inter;-inkscape-font-specification:&#39;Inter, @opsz=32,wght=800&#39;;font-variant-ligatures:normal;font-variant-caps:normal;font-variant-numeric:normal;font-variant-east-asian:normal;font-variation-settings:&#39;opsz&#39; 32, &#39;wght&#39; 800;writing-mode:lr-tb;direction:ltr;white-space:pre;shape-inside:url(#rect9);display:inline;fill:#0599ad;fill-opacity:1;stroke-width:20;stroke-linejoin:round" transform="translate(202.25555,151.74314)"><tspan x="-20.09375" y="390.77648" id="tspan2"><tspan dx="0 45.15625 16.75 39.09375 17.137451 25.556274 36.3125 16.75 12.78125 42.75 16.75 39.09375 38.46875 36.3125 16.75 12.78125 17.25 38.46875 24.706299 36.59375 16.75 16.75 16.75 39.09375 36.59375 38.46875 36.375" id="tspan1">Digital Signal Intelligence</tspan></tspan></text>
  <path d="m 223.40538,208.67336 h -14.43751 v -10.93751 h 13.78126 q 4.9948,0 8.20313,-1.82292 3.24479,-1.82292 4.8125,-5.43229 1.56771,-3.64584 1.56771,-8.96876 0,-5.35937 -1.60417,-8.96875 -1.56771,-3.60938 -4.84896,-5.43229 -3.24479,-1.82292 -8.27604,-1.82292 h -13.85418 v -10.93751 h 14.65626 q 8.27605,0 14.36459,3.35417 6.125,3.31771 9.44271,9.40626 3.31771,6.08854 3.31771,14.40104 0,8.31251 -3.31771,14.40105 -3.28125,6.08855 -9.36979,9.44272 -6.05209,3.31771 -14.43751,3.31771 z m -7.03646,-54.32295 v 54.32295 h -13.12501 v -54.32295 z m 39.55731,54.32295 v -38.50002 h 12.54167 v 38.50002 z m 6.23438,-42.25523 q -3.02605,0 -4.95834,-1.78646 -1.93229,-1.78646 -1.93229,-4.5573 0,-2.77083 1.93229,-4.52083 1.93229,-1.78646 4.95834,-1.78646 3.02604,0 4.95833,1.78646 1.96875,1.75 1.96875,4.52083 0,2.77084 -1.96875,4.5573 -1.93229,1.78646 -4.95833,1.78646 z m 32.3021,58.00523 q -5.94272,0 -9.88022,-1.64062 -3.9375,-1.64063 -6.08854,-4.5573 -2.15104,-2.88021 -2.73438,-6.5625 h 11.9948 q 0.32812,1.16667 1.23958,2.04167 0.91146,0.875 2.29688,1.34896 1.38542,0.47396 3.17188,0.47396 3.5,0 5.32291,-1.96876 1.82292,-1.93229 1.82292,-5.76042 v -5.94271 h -0.0365 q -1.02083,2.26042 -2.66146,3.71876 -1.60416,1.45833 -3.75521,2.15104 -2.11458,0.69271 -4.63021,0.69271 -5.03125,0 -8.78646,-2.47917 -3.75521,-2.51563 -5.83333,-6.89063 -2.04167,-4.375 -2.04167,-10.02605 0,-5.72396 2.11458,-10.17188 2.11459,-4.44791 5.83334,-6.96354 3.71875,-2.55209 8.60417,-2.55209 2.51562,0 4.55729,0.72917 2.07813,0.69271 3.75521,2.07813 1.67709,1.38542 2.84375,3.42708 h 0.0365 v -5.39583 h 12.46876 v 36.38543 q 0,6.27084 -2.40625,10.20834 -2.3698,3.9375 -6.78126,5.79688 -4.41146,1.85937 -10.42708,1.85937 z m -0.4375,-25.84897 q 2.40625,0 4.19271,-1.20312 1.78645,-1.20313 2.77083,-3.39063 1.02083,-2.22396 1.02083,-5.17709 0,-2.95312 -1.02083,-5.14062 -0.98438,-2.1875 -2.77083,-3.39063 -1.78646,-1.20313 -4.19271,-1.20313 -2.26042,0 -3.97396,1.16667 -1.67709,1.16667 -2.58855,3.35417 -0.875,2.1875 -0.875,5.21354 0,3.06251 0.875,5.25001 0.91146,2.1875 2.58855,3.35416 1.71354,1.16667 3.97396,1.16667 z m 27.05209,10.09897 v -38.50002 h 12.54168 v 38.50002 z m 6.23438,-42.25523 q -3.02604,0 -4.95834,-1.78646 -1.93229,-1.78646 -1.93229,-4.5573 0,-2.77083 1.93229,-4.52083 1.9323,-1.78646 4.95834,-1.78646 3.02604,0 4.95834,1.78646 1.96875,1.75 1.96875,4.52083 0,2.77084 -1.96875,4.5573 -1.9323,1.78646 -4.95834,1.78646 z m 38.00412,3.75521 v 9.69792 h -27.05209 v -9.69792 z m -20.48959,-10.50001 h 12.57813 v 36.05731 q 0,1.85938 0.72917,2.55209 0.72917,0.6927 2.84375,0.6927 0.94792,0 2.33333,0 1.38542,0 2.00521,0 v 9.69793 q -0.98437,0 -2.98958,0 -2.00521,0 -4.11979,0 -6.92709,0 -10.17188,-2.58855 -3.20834,-2.625 -3.20834,-8.23959 z m 37.83651,49.65628 q -3.86458,0 -6.85417,-1.23959 -2.95312,-1.27604 -4.66667,-3.79167 -1.67708,-2.55208 -1.67708,-6.38021 0,-3.24479 1.16667,-5.43229 1.16666,-2.22396 3.20833,-3.60938 2.07813,-1.38542 4.77604,-2.07813 2.73438,-0.72916 5.79688,-0.98437 3.42709,-0.29167 5.50521,-0.61979 2.07813,-0.36459 2.98959,-0.98438 0.91146,-0.65625 0.91146,-1.82292 v -0.18229 q 0,-1.16666 -0.65625,-2.00521 -0.65625,-0.875 -1.85938,-1.34896 -1.20312,-0.51041 -2.84375,-0.51041 -1.75,0 -3.02604,0.54687 -1.27605,0.51042 -2.00521,1.49479 -0.72917,0.94792 -0.875,2.26042 h -11.66668 q 0.29167,-4.19271 2.44271,-7.14583 2.15105,-2.98959 6.05209,-4.5573 3.9375,-1.60417 9.51563,-1.60417 4.19271,0 7.40105,0.91146 3.24479,0.875 5.46875,2.625 2.22396,1.71355 3.35417,4.22917 1.1302,2.47917 1.1302,5.65105 v 25.92189 h -12.25 v -5.39584 h -0.14583 q -1.16667,2.07813 -2.73438,3.42708 -1.56771,1.3125 -3.64584,1.96876 -2.07812,0.65625 -4.8125,0.65625 z m 3.82813,-8.20313 q 2.07812,0 3.75521,-0.80209 1.71354,-0.80208 2.69792,-2.1875 0.98437,-1.42187 0.98437,-3.31771 v -3.5 q -0.51041,0.21875 -1.20312,0.4375 -0.69271,0.21875 -1.56771,0.40104 -0.83854,0.18229 -1.85938,0.36459 -1.02083,0.18229 -2.1875,0.40104 -1.67708,0.25521 -2.98958,0.80208 -1.27605,0.54688 -2.04167,1.45834 -0.72917,0.875 -0.72917,2.15104 0,1.20312 0.65625,2.04167 0.65625,0.83854 1.78646,1.3125 1.16667,0.4375 2.69792,0.4375 z m 39.30211,-46.77607 v 54.32295 h -12.54168 v -54.32295 z m 43.53127,55.19795 q -7.21876,0 -12.28647,-2.18751 -5.06771,-2.22395 -7.72917,-6.41667 -2.66146,-4.22916 -2.66146,-10.20833 h 12.50522 q 0.0729,2.58854 1.34895,4.44792 1.27605,1.85937 3.53646,2.84375 2.29688,0.98437 5.39584,0.98437 2.80729,0 4.84896,-0.72916 2.07813,-0.72917 3.20834,-2.04167 1.16666,-1.34896 1.16666,-3.13542 0,-1.53125 -0.98437,-2.66146 -0.94792,-1.16667 -3.02605,-2.00521 -2.04166,-0.875 -5.32291,-1.56771 l -5.57813,-1.13021 q -7.94792,-1.64062 -11.9948,-5.50521 -4.04688,-3.90104 -4.04688,-9.84375 0,-5.06771 2.66146,-8.85938 2.69792,-3.79167 7.51042,-5.90626 4.81251,-2.15104 11.19272,-2.15104 6.52604,0 11.22917,2.15104 4.70313,2.11459 7.29167,6.08855 2.625,3.97396 2.80729,9.55209 h -12.14063 q -0.25521,-3.39063 -2.69792,-5.32292 -2.40625,-1.93229 -6.30729,-1.93229 -2.44271,0 -4.375,0.72916 -1.89584,0.72917 -2.98959,2.04167 -1.05729,1.27604 -1.05729,2.98958 0,1.4948 0.91146,2.58855 0.91146,1.05729 2.84375,1.85937 1.93229,0.80209 5.03125,1.42188 l 4.77605,0.94792 q 4.52083,0.91146 7.76563,2.29687 3.28125,1.34896 5.35937,3.2448 2.11459,1.89583 3.09896,4.41146 1.02084,2.47916 1.02084,5.61458 0,5.46875 -2.66146,9.3698 -2.66146,3.86458 -7.65626,5.94271 -4.99479,2.07813 -11.99479,2.07813 z m 28.25522,-0.875 v -38.50002 h 12.54168 v 38.50002 z m 6.23438,-42.25523 q -3.02604,0 -4.95833,-1.78646 -1.9323,-1.78646 -1.9323,-4.5573 0,-2.77083 1.9323,-4.52083 1.93229,-1.78646 4.95833,-1.78646 3.02605,0 4.95834,1.78646 1.96875,1.75 1.96875,4.52083 0,2.77084 -1.96875,4.5573 -1.93229,1.78646 -4.95834,1.78646 z m 32.30208,58.00523 q -5.94271,0 -9.88021,-1.64062 -3.9375,-1.64063 -6.08855,-4.5573 -2.15104,-2.88021 -2.73437,-6.5625 h 11.99479 q 0.32813,1.16667 1.23959,2.04167 0.91146,0.875 2.29687,1.34896 1.38542,0.47396 3.17188,0.47396 3.5,0 5.32292,-1.96876 1.82292,-1.93229 1.82292,-5.76042 v -5.94271 h -0.0365 q -1.02083,2.26042 -2.66146,3.71876 -1.60417,1.45833 -3.75521,2.15104 -2.11458,0.69271 -4.63021,0.69271 -5.03125,0 -8.78646,-2.47917 -3.75521,-2.51563 -5.83334,-6.89063 -2.04167,-4.375 -2.04167,-10.02605 0,-5.72396 2.11459,-10.17188 2.11458,-4.44791 5.83333,-6.96354 3.71876,-2.55209 8.60417,-2.55209 2.51563,0 4.5573,0.72917 2.07812,0.69271 3.75521,2.07813 1.67708,1.38542 2.84375,3.42708 h 0.0365 v -5.39583 h 12.46875 v 36.38543 q 0,6.27084 -2.40625,10.20834 -2.36979,3.9375 -6.78125,5.79688 -4.41146,1.85937 -10.42709,1.85937 z m -0.4375,-25.84897 q 2.40625,0 4.19271,-1.20312 1.78646,-1.20313 2.77084,-3.39063 1.02083,-2.22396 1.02083,-5.17709 0,-2.95312 -1.02083,-5.14062 -0.98438,-2.1875 -2.77084,-3.39063 -1.78646,-1.20313 -4.19271,-1.20313 -2.26042,0 -3.97396,1.16667 -1.67708,1.16667 -2.58854,3.35417 -0.875,2.1875 -0.875,5.21354 0,3.06251 0.875,5.25001 0.91146,2.1875 2.58854,3.35416 1.71354,1.16667 3.97396,1.16667 z m 39.59378,-10.82813 v 20.9271 h -12.54167 v -38.50002 h 12.39584 v 10.31771 h -1.85938 q 1.78646,-5.10417 5.17709,-8.13021 3.39062,-3.02605 8.93229,-3.02605 4.19271,0 7.14584,1.82292 2.95312,1.78646 4.52083,5.17709 1.56771,3.39062 1.56771,8.13021 v 24.20835 h -12.54167 v -21.58335 q 0,-3.42708 -1.64063,-5.21354 -1.64062,-1.82292 -4.63021,-1.82292 -1.96875,0 -3.46354,0.83854 -1.45833,0.83854 -2.26042,2.55209 -0.80208,1.67708 -0.80208,4.30208 z m 44.11459,21.58335 q -3.86458,0 -6.85417,-1.23959 -2.95312,-1.27604 -4.66667,-3.79167 -1.67708,-2.55208 -1.67708,-6.38021 0,-3.24479 1.16667,-5.43229 1.16666,-2.22396 3.20833,-3.60938 2.07813,-1.38542 4.77605,-2.07813 2.73437,-0.72916 5.79687,-0.98437 3.42709,-0.29167 5.50521,-0.61979 2.07813,-0.36459 2.98959,-0.98438 0.91146,-0.65625 0.91146,-1.82292 v -0.18229 q 0,-1.16666 -0.65625,-2.00521 -0.65625,-0.875 -1.85938,-1.34896 -1.20312,-0.51041 -2.84375,-0.51041 -1.75,0 -3.02604,0.54687 -1.27605,0.51042 -2.00521,1.49479 -0.72917,0.94792 -0.875,2.26042 h -11.66668 q 0.29167,-4.19271 2.44271,-7.14583 2.15105,-2.98959 6.05209,-4.5573 3.9375,-1.60417 9.51563,-1.60417 4.19271,0 7.40105,0.91146 3.24479,0.875 5.46875,2.625 2.22396,1.71355 3.35417,4.22917 1.1302,2.47917 1.1302,5.65105 v 25.92189 h -12.25 v -5.39584 h -0.14583 q -1.16667,2.07813 -2.73438,3.42708 -1.56771,1.3125 -3.64584,1.96876 -2.07812,0.65625 -4.8125,0.65625 z m 3.82813,-8.20313 q 2.07812,0 3.75521,-0.80209 1.71354,-0.80208 2.69792,-2.1875 0.98437,-1.42187 0.98437,-3.31771 v -3.5 q -0.51041,0.21875 -1.20312,0.4375 -0.69271,0.21875 -1.56771,0.40104 -0.83854,0.18229 -1.85938,0.36459 -1.02083,0.18229 -2.1875,0.40104 -1.67708,0.25521 -2.98958,0.80208 -1.27605,0.54688 -2.04167,1.45834 -0.72917,0.875 -0.72917,2.15104 0,1.20312 0.65625,2.04167 0.65625,0.83854 1.78646,1.3125 1.16667,0.4375 2.69792,0.4375 z m 39.30212,-46.77607 v 54.32295 h -12.54167 v -54.32295 z m 35.03646,0 v 54.32295 h -13.12501 v -54.32295 z m 19.5417,33.39585 v 20.9271 h -12.54168 v -38.50002 h 12.39584 v 10.31771 h -1.85937 q 1.78646,-5.10417 5.17708,-8.13021 3.39063,-3.02605 8.9323,-3.02605 4.19271,0 7.14584,1.82292 2.95312,1.78646 4.52083,5.17709 1.56771,3.39062 1.56771,8.13021 v 24.20835 h -12.54167 v -21.58335 q 0,-3.42708 -1.64063,-5.21354 -1.64062,-1.82292 -4.63021,-1.82292 -1.96875,0 -3.46354,0.83854 -1.45834,0.83854 -2.26042,2.55209 -0.80208,1.67708 -0.80208,4.30208 z m 56.58335,-17.57292 v 9.69792 h -27.0521 v -9.69792 z m -20.4896,-10.50001 h 12.57813 v 36.05731 q 0,1.85938 0.72917,2.55209 0.72917,0.6927 2.84375,0.6927 0.94792,0 2.33334,0 1.38541,0 2.00521,0 v 9.69793 q -0.98438,0 -2.98959,0 -2.00521,0 -4.11979,0 -6.92709,0 -10.17188,-2.58855 -3.20834,-2.625 -3.20834,-8.23959 z m 43.298,49.87503 q -5.90625,0 -10.39063,-2.55209 -4.44791,-2.58854 -6.96354,-7.14584 -2.47917,-4.55729 -2.47917,-10.42708 0,-5.8698 2.47917,-10.42709 2.51563,-4.5573 6.92709,-7.10938 4.41146,-2.58854 10.09896,-2.58854 4.33854,0 7.91146,1.45833 3.57292,1.42188 6.16146,4.08334 2.625,2.66146 4.04688,6.30729 1.42187,3.60938 1.42187,7.98438 v 3.39063 h -34.96355 v -7.51042 h 29.09376 l -5.76042,1.53125 q 0,-2.47917 -0.91146,-4.26563 -0.91146,-1.78646 -2.625,-2.73438 -1.67708,-0.98437 -4.04688,-0.98437 -2.36979,0 -4.08333,0.98437 -1.67709,0.94792 -2.625,2.73438 -0.91146,1.78646 -0.91146,4.26563 v 5.54167 q 0,2.55208 0.94792,4.48437 0.98437,1.89584 2.77083,2.91667 1.82292,1.02083 4.33854,1.02083 1.85938,0 3.31771,-0.51041 1.45834,-0.51042 2.44271,-1.45834 0.98438,-0.94791 1.45834,-2.1875 h 11.26563 q -0.69271,3.86459 -3.35417,6.85417 -2.66146,2.95313 -6.70834,4.66667 -4.01042,1.67709 -8.85938,1.67709 z m 37.00525,-55.19795 v 54.32295 h -12.54167 v -54.32295 z m 19.54163,0 v 54.32295 h -12.54168 v -54.32295 z m 7.00001,54.32295 v -38.50002 h 12.54167 v 38.50002 z m 6.23438,-42.25523 q -3.02604,0 -4.95834,-1.78646 -1.93229,-1.78646 -1.93229,-4.5573 0,-2.77083 1.93229,-4.52083 1.9323,-1.78646 4.95834,-1.78646 3.02604,0 4.95833,1.78646 1.96876,1.75 1.96876,4.52083 0,2.77084 -1.96876,4.5573 -1.93229,1.78646 -4.95833,1.78646 z m 32.30211,58.00523 q -5.94271,0 -9.88021,-1.64062 -3.93751,-1.64063 -6.08855,-4.5573 -2.15104,-2.88021 -2.73438,-6.5625 h 11.9948 q 0.32813,1.16667 1.23959,2.04167 0.91145,0.875 2.29687,1.34896 1.38542,0.47396 3.17188,0.47396 3.5,0 5.32292,-1.96876 1.82291,-1.93229 1.82291,-5.76042 v -5.94271 h -0.0364 q -1.02084,2.26042 -2.66146,3.71876 -1.60417,1.45833 -3.75521,2.15104 -2.11459,0.69271 -4.63021,0.69271 -5.03126,0 -8.78647,-2.47917 -3.75521,-2.51563 -5.83333,-6.89063 -2.04167,-4.375 -2.04167,-10.02605 0,-5.72396 2.11458,-10.17188 2.11459,-4.44791 5.83334,-6.96354 3.71875,-2.55209 8.60417,-2.55209 2.51563,0 4.5573,0.72917 2.07812,0.69271 3.75521,2.07813 1.67708,1.38542 2.84375,3.42708 h 0.0364 v -5.39583 h 12.46876 v 36.38543 q 0,6.27084 -2.40625,10.20834 -2.36979,3.9375 -6.78125,5.79688 -4.41146,1.85937 -10.42709,1.85937 z m -0.4375,-25.84897 q 2.40625,0 4.19271,-1.20312 1.78646,-1.20313 2.77083,-3.39063 1.02084,-2.22396 1.02084,-5.17709 0,-2.95312 -1.02084,-5.14062 -0.98437,-2.1875 -2.77083,-3.39063 -1.78646,-1.20313 -4.19271,-1.20313 -2.26042,0 -3.97396,1.16667 -1.67709,1.16667 -2.58855,3.35417 -0.875,2.1875 -0.875,5.21354 0,3.06251 0.875,5.25001 0.91146,2.1875 2.58855,3.35416 1.71354,1.16667 3.97396,1.16667 z m 45.28125,10.97397 q -5.90626,0 -10.39063,-2.55209 -4.44792,-2.58854 -6.96355,-7.14584 -2.47917,-4.55729 -2.47917,-10.42708 0,-5.8698 2.47917,-10.42709 2.51563,-4.5573 6.92709,-7.10938 4.41146,-2.58854 10.09896,-2.58854 4.33855,0 7.91146,1.45833 3.57292,1.42188 6.16147,4.08334 2.625,2.66146 4.04687,6.30729 1.42188,3.60938 1.42188,7.98438 v 3.39063 h -34.96356 v -7.51042 h 29.09376 l -5.76042,1.53125 q 0,-2.47917 -0.91145,-4.26563 -0.91146,-1.78646 -2.62501,-2.73438 -1.67708,-0.98437 -4.04687,-0.98437 -2.3698,0 -4.08334,0.98437 -1.67708,0.94792 -2.625,2.73438 -0.91146,1.78646 -0.91146,4.26563 v 5.54167 q 0,2.55208 0.94792,4.48437 0.98438,1.89584 2.77083,2.91667 1.82292,1.02083 4.33855,1.02083 1.85937,0 3.31771,-0.51041 1.45833,-0.51042 2.44271,-1.45834 0.98437,-0.94791 1.45833,-2.1875 h 11.26563 q -0.69271,3.86459 -3.35417,6.85417 -2.66146,2.95313 -6.70833,4.66667 -4.01042,1.67709 -8.85938,1.67709 z m 37.00524,-21.8021 v 20.9271 h -12.54167 v -38.50002 h 12.39584 v 10.31771 h -1.85938 q 1.78646,-5.10417 5.17709,-8.13021 3.39063,-3.02605 8.9323,-3.02605 4.19271,0 7.14583,1.82292 2.95308,1.78646 4.52088,5.17709 1.5677,3.39062 1.5677,8.13021 v 24.20835 h -12.5417 v -21.58335 q 0,-3.42708 -1.64063,-5.21354 -1.64063,-1.82292 -4.63021,-1.82292 -1.96875,0 -3.46354,0.83854 -1.45834,0.83854 -2.26042,2.55209 -0.80209,1.67708 -0.80209,4.30208 z m 50.64069,21.8021 q -5.9427,0 -10.4271,-2.51563 -4.4844,-2.55209 -7,-7.07292 -2.4792,-4.52084 -2.4792,-10.53646 0,-5.97917 2.4792,-10.50001 2.5156,-4.55729 7,-7.07292 4.4844,-2.55208 10.4271,-2.55208 4.0104,0 7.3646,1.16666 3.3906,1.16667 5.8698,3.31771 2.5156,2.11459 3.9739,5.06771 1.4584,2.91667 1.6771,6.45313 h -12.1042 q -0.1458,-1.34896 -0.6562,-2.47917 -0.5104,-1.1302 -1.3854,-1.93229 -0.8386,-0.80208 -1.9688,-1.20312 -1.1302,-0.4375 -2.5156,-0.4375 -2.3333,0 -4.0104,1.23958 -1.6771,1.20313 -2.5521,3.5 -0.875,2.29688 -0.875,5.4323 0,3.13541 0.875,5.43229 0.875,2.29688 2.5521,3.53646 1.6771,1.20313 4.0104,1.20313 1.3854,0 2.5156,-0.40105 1.1302,-0.4375 1.9323,-1.23958 0.8386,-0.83854 1.349,-1.96875 0.5104,-1.16667 0.6927,-2.55209 h 12.1406 q -0.1094,3.53646 -1.5312,6.48959 -1.4219,2.91667 -3.9375,5.10417 -2.5157,2.15104 -5.9428,3.35417 -3.3906,1.16667 -7.4739,1.16667 z m 42.3646,0 q -5.9063,0 -10.3907,-2.55209 -4.4479,-2.58854 -6.9635,-7.14584 -2.4792,-4.55729 -2.4792,-10.42708 0,-5.8698 2.4792,-10.42709 2.5156,-4.5573 6.9271,-7.10938 4.4114,-2.58854 10.0989,-2.58854 4.3386,0 7.9115,1.45833 3.5729,1.42188 6.1615,4.08334 2.625,2.66146 4.0468,6.30729 1.4219,3.60938 1.4219,7.98438 v 3.39063 h -34.9635 v -7.51042 h 29.0937 l -5.7604,1.53125 q 0,-2.47917 -0.9115,-4.26563 -0.9114,-1.78646 -2.625,-2.73438 -1.677,-0.98437 -4.0468,-0.98437 -2.3698,0 -4.0834,0.98437 -1.6771,0.94792 -2.625,2.73438 -0.9114,1.78646 -0.9114,4.26563 v 5.54167 q 0,2.55208 0.9479,4.48437 0.9844,1.89584 2.7708,2.91667 1.8229,1.02083 4.3386,1.02083 1.8593,0 3.3177,-0.51041 1.4583,-0.51042 2.4427,-1.45834 0.9844,-0.94791 1.4583,-2.1875 h 11.2656 q -0.6927,3.86459 -3.3541,6.85417 -2.6615,2.95313 -6.7084,4.66667 -4.0104,1.67709 -8.8593,1.67709 z" id="text10" style="font-size:74.6667px;font-family:Inter;-inkscape-font-specification:&#39;Inter, @opsz=32,wght=800&#39;;font-variation-settings:&#39;opsz&#39; 32, &#39;wght&#39; 800;fill:#0599ad;stroke-width:20;stroke-linejoin:round" aria-label="Digital Signal Intelligence"></path>
</svg>