<?xml version="1.0" encoding="UTF-8" standalone="no"?>
<svg
   viewBox="0 0 900 200"
   width="900"
   height="200"
   version="1.1"
   id="svg4"
   sodipodi:docname="Standard_Generate_Logo.svg"
   inkscape:version="1.4.3 (0d15f75, 2025-12-25)"
   xmlns:inkscape="http://www.inkscape.org/namespaces/inkscape"
   xmlns:sodipodi="http://sodipodi.sourceforge.net/DTD/sodipodi-0.dtd"
   xmlns="http://www.w3.org/2000/svg"
   xmlns:svg="http://www.w3.org/2000/svg">
  <defs
     id="defs4" />
  <sodipodi:namedview
     id="namedview4"
     pagecolor="#505050"
     bordercolor="#eeeeee"
     borderopacity="1"
     inkscape:showpageshadow="0"
     inkscape:pageopacity="0"
     inkscape:pagecheckerboard="0"
     inkscape:deskcolor="#505050"
     inkscape:zoom="1.1944444"
     inkscape:cx="360.83721"
     inkscape:cy="340.32558"
     inkscape:window-width="2256"
     inkscape:window-height="1470"
     inkscape:window-x="-11"
     inkscape:window-y="-11"
     inkscape:window-maximized="1"
     inkscape:current-layer="svg4"
     showguides="true">
    <sodipodi:guide
       position="-240.27907,125.48837"
       orientation="1,0"
       id="guide14"
       inkscape:locked="false" />
  </sodipodi:namedview>
  <!-- Icon -->
  <!-- Wordmark -->
  <path
     d="m 357.55918,139.66673 q -11.23955,0 -19.66921,-4.94331 -8.42966,-4.94333 -13.11281,-13.94537 -4.68313,-9.00205 -4.68313,-21.07416 0,-12.644487 4.89128,-21.594496 4.89129,-9.002043 13.32094,-13.737224 8.42966,-4.735178 18.94072,-4.735178 6.8686,0 12.90466,1.977327 6.03605,1.977328 10.7192,5.671808 4.68315,3.642446 7.5971,8.689834 2.96599,5.047389 3.5904,11.239546 h -19.04478 q -0.52036,-2.601745 -1.76919,-4.683143 -1.24884,-2.081398 -3.17412,-3.538376 -1.9253,-1.456978 -4.47501,-2.237503 -2.54971,-0.780524 -5.67181,-0.780524 -6.03606,0 -10.30292,2.861922 -4.21482,2.809887 -6.45233,8.11745 -2.2375,5.255529 -2.2375,12.748557 0,7.441 2.2375,12.74857 2.28953,5.25552 6.55639,8.06541 4.31892,2.80988 10.40699,2.80988 4.99536,0 8.6378,-1.71714 3.64245,-1.71716 5.56775,-4.78721 1.97733,-3.1221 1.97733,-7.23287 l 4.16279,0.36425 H 358.80801 V 96.217552 h 33.82272 v 10.511068 q 0,9.8346 -4.475,17.2756 -4.42298,7.38896 -12.33229,11.55176 -7.85728,4.11075 -18.26426,4.11075 z m 68.35655,0 q -8.42965,0 -14.82994,-3.64245 -6.34827,-3.69447 -9.93869,-10.19885 -3.53838,-6.50436 -3.53838,-14.88199 0,-8.37763 3.53838,-14.881993 3.59042,-6.504368 9.88664,-10.146812 6.29624,-3.694481 14.41369,-3.694481 6.19215,0 11.29157,2.081397 5.09942,2.029362 8.79392,5.827913 3.74651,3.798551 5.77586,9.002044 2.02937,5.151462 2.02937,11.395662 v 4.83925 h -49.90151 v -10.7192 h 41.52387 l -8.22151,2.18547 q 0,-3.53839 -1.30087,-6.0881 -1.30087,-2.549711 -3.74651,-3.902619 -2.39361,-1.404942 -5.77589,-1.404942 -3.38227,0 -5.8279,1.404942 -2.39362,1.352908 -3.74653,3.902619 -1.30086,2.54971 -1.30086,6.0881 v 7.9093 q 0,3.64246 1.35291,6.40029 1.40494,2.70582 3.95466,4.1628 2.60174,1.45699 6.19215,1.45699 2.65378,0 4.73518,-0.7285 2.0814,-0.72849 3.48633,-2.08139 1.40495,-1.35291 2.08141,-3.1221 h 16.07879 q -0.98866,5.5157 -4.78721,9.78256 -3.79856,4.21483 -9.57443,6.66048 -5.72384,2.39361 -12.6445,2.39361 z m 51.70539,-31.1169 v 29.86806 H 459.7211 V 83.468992 h 17.69188 V 98.19488 h -2.65379 q 2.54972,-7.284892 7.38896,-11.60379 4.83926,-4.318901 12.74858,-4.318901 5.98401,0 10.19884,2.601747 4.21482,2.549712 6.45234,7.388961 2.23749,4.839249 2.23749,11.603793 v 34.5512 h -17.90002 v -30.80468 q 0,-4.89129 -2.34156,-7.441 -2.34158,-2.601749 -6.60844,-2.601749 -2.8099,0 -4.94333,1.196803 -2.08139,1.196805 -3.22616,3.642446 -1.14477,2.39361 -1.14477,6.14012 z m 71.06237,31.1169 q -8.42966,0 -14.82994,-3.64245 -6.34827,-3.69447 -9.93869,-10.19885 -3.53837,-6.50436 -3.53837,-14.88199 0,-8.37763 3.53837,-14.881993 3.59042,-6.504368 9.88664,-10.146812 6.29623,-3.694481 14.41369,-3.694481 6.19214,0 11.29157,2.081397 5.09943,2.029362 8.79391,5.827913 3.74651,3.798551 5.77588,9.002044 2.02936,5.151462 2.02936,11.395662 v 4.83925 H 526.2044 v -10.7192 h 41.52387 l -8.22151,2.18547 q 0,-3.53839 -1.30087,-6.0881 -1.30088,-2.549711 -3.74652,-3.902619 -2.3936,-1.404942 -5.77588,-1.404942 -3.38226,0 -5.82791,1.404942 -2.39361,1.352908 -3.74652,3.902619 -1.30086,2.54971 -1.30086,6.0881 v 7.9093 q 0,3.64246 1.35291,6.40029 1.40493,2.70582 3.95464,4.1628 2.60176,1.45699 6.19217,1.45699 2.65378,0 4.73517,-0.7285 2.08141,-0.72849 3.48635,-2.08139 1.40495,-1.35291 2.08139,-3.1221 h 16.0788 q -0.98867,5.5157 -4.78721,9.78256 -3.79855,4.21483 -9.57443,6.66048 -5.72385,2.39361 -12.6445,2.39361 z m 33.80538,-1.24884 V 83.468992 h 17.32762 v 9.678499 h 0.15611 q 1.509,-5.255529 4.68315,-7.545066 3.22616,-2.341572 8.74187,-2.341572 1.45697,0 2.60174,0.05203 1.1968,0 2.28953,0.05203 v 14.777922 q -0.98866,-0.05203 -3.07006,-0.104069 -2.02935,-0.05203 -4.00668,-0.05203 -3.17415,0 -5.61979,1.456975 -2.44564,1.404949 -3.85057,4.162809 -1.3529,2.75785 -1.3529,6.66048 v 28.1509 z m 57.23774,0.93663 q -5.5157,0 -9.78256,-1.7692 -4.21483,-1.82121 -6.66047,-5.41162 -2.39362,-3.64245 -2.39362,-9.10611 0,-4.63112 1.66514,-7.75322 1.66511,-3.17412 4.57906,-5.15144 2.96599,-1.97734 6.81657,-2.96601 3.90263,-1.04069 8.27357,-1.40494 4.89127,-0.41627 7.85726,-0.88459 2.966,-0.52035 4.26686,-1.40495 1.30088,-0.93663 1.30088,-2.60175 v -0.26017 q 0,-1.665117 -0.93662,-2.86192 -0.93663,-1.248838 -2.65379,-1.925293 -1.71715,-0.728488 -4.05872,-0.728488 -2.49769,0 -4.3189,0.780523 -1.82123,0.728489 -2.86193,2.133432 -1.04069,1.352905 -1.24883,3.226166 h -16.65119 q 0.41628,-5.984017 3.48635,-10.198847 3.07006,-4.266865 8.63781,-6.504367 5.61977,-2.289537 13.5811,-2.289537 5.98403,0 10.56311,1.300873 4.63109,1.248839 7.80524,3.746516 3.17412,2.445643 4.7872,6.036052 1.61308,3.538376 1.61308,8.06541 v 36.99685 h -17.48373 v -7.70118 h -0.20815 q -1.66512,2.96601 -3.9026,4.89129 -2.23752,1.87326 -5.2035,2.80989 -2.96599,0.93663 -6.86862,0.93663 z m 5.46367,-11.70786 q 2.96599,0 5.35961,-1.14477 2.44563,-1.14476 3.85058,-3.12209 1.40494,-2.02937 1.40494,-4.73518 v -4.99537 q -0.72849,0.31222 -1.71716,0.62443 -0.98866,0.31221 -2.2375,0.57239 -1.1968,0.26017 -2.65377,0.52035 -1.45698,0.26017 -3.1221,0.57238 -2.39361,0.36425 -4.26688,1.14478 -1.82122,0.78051 -2.91395,2.08139 -1.04069,1.24883 -1.04069,3.07005 0,1.71716 0.93662,2.91397 0.93663,1.19679 2.54971,1.87325 1.66512,0.62442 3.85059,0.62442 z M 716.87709,83.468992 V 97.310286 H 678.26716 V 83.468992 Z M 687.63344,68.48293 h 17.95205 v 51.46257 q 0,2.65377 1.0407,3.64243 1.0407,0.98867 4.05873,0.98867 1.35291,0 3.33024,0 1.97732,0 2.86193,0 v 13.84129 q -1.40496,0 -4.26688,0 -2.86193,0 -5.87995,0 -9.88664,0 -14.51774,-3.69447 -4.57908,-3.74652 -4.57908,-11.7599 z m 60.6867,71.1838 q -8.42965,0 -14.82995,-3.64245 -6.34827,-3.69447 -9.93868,-10.19885 -3.53838,-6.50436 -3.53838,-14.88199 0,-8.37763 3.53838,-14.881993 3.59041,-6.504368 9.88663,-10.146812 6.29625,-3.694481 14.41368,-3.694481 6.19216,0 11.29157,2.081397 5.09944,2.029362 8.79393,5.827913 3.74651,3.798551 5.77587,9.002044 2.02936,5.151462 2.02936,11.395662 v 4.83925 h -49.90151 v -10.7192 h 41.52387 l -8.22152,2.18547 q 0,-3.53839 -1.30085,-6.0881 -1.30089,-2.549711 -3.74651,-3.902619 -2.39362,-1.404942 -5.77589,-1.404942 -3.38227,0 -5.82792,1.404942 -2.3936,1.352908 -3.74651,3.902619 -1.30087,2.54971 -1.30087,6.0881 v 7.9093 q 0,3.64246 1.35291,6.40029 1.40494,2.70582 3.95466,4.1628 2.60175,1.45699 6.19214,1.45699 2.65379,0 4.7352,-0.7285 2.08139,-0.72849 3.48633,-2.08139 1.40494,-1.35291 2.08139,-3.1221 h 16.0788 q -0.98868,5.5157 -4.7872,9.78256 -3.79856,4.21483 -9.57444,6.66048 -5.72384,2.39361 -12.64449,2.39361 z"
     id="text4"
     style="font-weight:800;font-size:96px;font-family:Inter, system-ui, '-apple-system', BlinkMacSystemFont, 'Segoe UI', sans-serif;letter-spacing:-1;fill:#0b3954;fill-opacity:1;stroke-width:1.11008"
     aria-label="Generate"
     clip-path="none" />
  <path
     id="rect11-31-8-5-9"
     style="fill:#0b3954;fill-opacity:1;stroke:none;stroke-width:10.3565;stroke-linejoin:round;stroke-dasharray:none;stroke-opacity:1"
     d="M 213.45966,5.9547336 C 212.84898,5.3440575 212.15994,5.0490473 211.91567,5.2933188 L 117.9979,99.21109 c -0.24428,0.244276 0.0518,0.93228 0.66244,1.54296 l 92.59495,92.59494 c 0.61067,0.61068 1.29765,0.90569 1.54192,0.66141 l 11.78305,-11.78304 10.57441,-10.57441 -20.15823,1.27037 -0.006,-0.10286 c -0.2612,0.14205 -0.57241,0.12133 -0.7684,-0.0751 l -56.6771,-56.80655 -15.46044,-15.46044 c -0.45801,-0.45801 -0.68004,-0.974014 -0.49683,-1.157218 l 70.43806,-70.438066 c 0.18321,-0.183205 0.70024,0.03779 1.15825,0.495805 l 19.32709,19.327084 22.29574,-1.404088 z" />
  <path
     id="rect11-31-8-5-5-2-7"
     style="fill:#39d3ba;fill-opacity:1;stroke:none;stroke-width:10.3565;stroke-linejoin:round;stroke-dasharray:none;stroke-opacity:1"
     d="m 272.35847,64.853543 -37.48565,2.361751 -17.06408,17.064082 69.5915,-4.384058 z m 32.59343,32.593431 -107.05452,6.743756 -12.74483,12.74483 4.06403,4.07456 1.35369,-0.0844 101.85577,-6.54419 14.34334,-14.34334 c 0.21377,-0.213773 0.11613,-0.657402 -0.22116,-0.994692 z m -32.57389,36.982636 -65.64668,4.1341 15.22797,15.26293 33.10672,-2.08504 z m -37.22334,37.22334 -0.4454,0.0278 0.20881,0.20881 z m -20.49356,1.29094 -0.12756,0.008 0.0597,0.0597 z" />
</svg>
