<?xml version="1.0" encoding="UTF-8" standalone="no"?>
<svg
   viewBox="0 0 1092.638 224.42336"
   width="1092.6381"
   height="224.42336"
   version="1.1"
   id="svg4"
   sodipodi:docname="Alternate_Generate_Logo_and_DSI.svg"
   inkscape:version="1.4.3 (0d15f75, 2025-12-25)"
   xmlns:inkscape="http://www.inkscape.org/namespaces/inkscape"
   xmlns:sodipodi="http://sodipodi.sourceforge.net/DTD/sodipodi-0.dtd"
   xmlns="http://www.w3.org/2000/svg"
   xmlns:svg="http://www.w3.org/2000/svg">
  <defs
     id="defs4">
    <rect
       x="-20.093023"
       y="264.55814"
       width="808.7442"
       height="66.976746"
       id="rect9" />
    <rect
       x="-113.02326"
       y="258.69769"
       width="909.20935"
       height="86.232559"
       id="rect8" />
    <rect
       x="246.13954"
       y="493.1163"
       width="549.20929"
       height="107.16279"
       id="rect7" />
    <rect
       x="231.06978"
       y="466.32559"
       width="621.20935"
       height="91.255814"
       id="rect6" />
    <rect
       x="246.97675"
       y="294.69769"
       width="678.13959"
       height="96.279076"
       id="rect3" />
    <rect
       x="172.46512"
       y="226.04652"
       width="696.55817"
       height="97.953491"
       id="rect2" />
  </defs>
  <sodipodi:namedview
     id="namedview4"
     pagecolor="#505050"
     bordercolor="#eeeeee"
     borderopacity="1"
     inkscape:showpageshadow="0"
     inkscape:pageopacity="0"
     inkscape:pagecheckerboard="0"
     inkscape:deskcolor="#505050"
     inkscape:zoom="1.1944444"
     inkscape:cx="515.72095"
     inkscape:cy="335.30234"
     inkscape:window-width="2256"
     inkscape:window-height="1470"
     inkscape:window-x="-11"
     inkscape:window-y="-11"
     inkscape:window-maximized="1"
     inkscape:current-layer="svg4"
     showguides="false">
    <sodipodi:guide
       position="-358.19132,140.31112"
       orientation="1,0"
       id="guide14"
       inkscape:locked="false" />
  </sodipodi:namedview>
  <!-- Icon -->
  <!-- Wordmark -->
  <path
     d="m 239.64691,134.4592 q -11.23955,0 -19.66921,-4.94331 -8.42965,-4.94333 -13.1128,-13.94537 -4.68314,-9.00205 -4.68314,-21.074162 0,-12.644487 4.89128,-21.594496 4.89129,-9.002043 13.32094,-13.737224 8.42966,-4.735178 18.94072,-4.735178 6.86861,0 12.90467,1.977327 6.03604,1.977328 10.71919,5.671808 4.68315,3.642446 7.5971,8.689834 2.96599,5.047389 3.5904,11.239546 h -19.04478 q -0.52035,-2.601745 -1.76919,-4.683143 -1.24884,-2.081398 -3.17412,-3.538376 -1.9253,-1.456978 -4.475,-2.237503 -2.54972,-0.780524 -5.67181,-0.780524 -6.03606,0 -10.30293,2.861922 -4.21482,2.809887 -6.45233,8.11745 -2.23749,5.255529 -2.23749,12.748557 0,7.441002 2.23749,12.748572 2.28954,5.25552 6.5564,8.06541 4.31892,2.80988 10.40699,2.80988 4.99536,0 8.6378,-1.71714 3.64245,-1.71716 5.56774,-4.78721 1.97734,-3.1221 1.97734,-7.23287 l 4.16279,0.36424 H 240.89574 V 91.01002 h 33.82273 v 10.51106 q 0,9.83461 -4.47501,17.27561 -4.42298,7.38895 -12.33228,11.55176 -7.85728,4.11075 -18.26427,4.11075 z m 68.35656,0 q -8.42965,0 -14.82995,-3.64245 -6.34826,-3.69447 -9.93868,-10.19885 -3.53838,-6.50436 -3.53838,-14.88199 0,-8.377627 3.53838,-14.881995 3.59042,-6.504368 9.88663,-10.146812 6.29624,-3.694481 14.41369,-3.694481 6.19215,0 11.29158,2.081397 5.09942,2.029362 8.79391,5.827913 3.74651,3.798551 5.77587,9.002044 2.02937,5.15146 2.02937,11.395654 v 4.83925 H 285.52438 V 99.439687 h 41.52387 l -8.22151,2.185473 q 0,-3.53839 -1.30087,-6.088103 -1.30088,-2.54971 -3.74652,-3.902618 -2.39361,-1.404942 -5.77588,-1.404942 -3.38227,0 -5.82791,1.404942 -2.39361,1.352908 -3.74652,3.902618 -1.30086,2.549713 -1.30086,6.088103 v 7.9093 q 0,3.64245 1.35291,6.40029 1.40493,2.70582 3.95465,4.1628 2.60175,1.45698 6.19215,1.45698 2.65378,0 4.73519,-0.72849 2.08139,-0.72849 3.48633,-2.08139 1.40495,-1.35291 2.0814,-3.1221 h 16.07879 q -0.98865,5.5157 -4.7872,9.78256 -3.79856,4.21483 -9.57444,6.66047 -5.72384,2.39362 -12.64449,2.39362 z m 51.70538,-31.1169 v 29.86806 h -17.90002 v -54.9489 h 17.69189 v 14.725888 h -2.65379 q 2.54972,-7.284892 7.38895,-11.60379 4.83926,-4.318901 12.74858,-4.318901 5.98402,0 10.19884,2.601747 4.21483,2.549712 6.45235,7.388961 2.23748,4.839249 2.23748,11.603795 v 34.5512 h -17.90002 v -30.80468 q 0,-4.891292 -2.34156,-7.441005 -2.34158,-2.601746 -6.60844,-2.601746 -2.80989,0 -4.94333,1.196803 -2.08139,1.196805 -3.22615,3.642445 -1.14478,2.393616 -1.14478,6.140123 z m 71.06238,31.1169 q -8.42966,0 -14.82995,-3.64245 -6.34827,-3.69447 -9.93869,-10.19885 -3.53837,-6.50436 -3.53837,-14.88199 0,-8.377627 3.53837,-14.881995 3.59042,-6.504368 9.88665,-10.146812 6.29623,-3.694481 14.41368,-3.694481 6.19215,0 11.29157,2.081397 5.09943,2.029362 8.79392,5.827913 3.74651,3.798551 5.77587,9.002044 2.02937,5.15146 2.02937,11.395654 v 4.83925 H 408.29214 V 99.439687 h 41.52387 l -8.22152,2.185473 q 0,-3.53839 -1.30086,-6.088103 -1.30089,-2.54971 -3.74653,-3.902618 -2.39359,-1.404942 -5.77587,-1.404942 -3.38226,0 -5.82791,1.404942 -2.39362,1.352908 -3.74653,3.902618 -1.30086,2.549713 -1.30086,6.088103 v 7.9093 q 0,3.64245 1.35291,6.40029 1.40494,2.70582 3.95465,4.1628 2.60175,1.45698 6.19217,1.45698 2.65377,0 4.73516,-0.72849 2.08142,-0.72849 3.48635,-2.08139 1.40495,-1.35291 2.08139,-3.1221 h 16.07881 q -0.98867,5.5157 -4.78722,9.78256 -3.79855,4.21483 -9.57443,6.66047 -5.72384,2.39362 -12.64449,2.39362 z m 33.80537,-1.24884 v -54.9489 h 17.32763 v 9.678499 h 0.1561 q 1.50901,-5.255529 4.68316,-7.545066 3.22615,-2.341572 8.74186,-2.341572 1.45698,0 2.60175,0.05203 1.1968,0 2.28953,0.05203 v 14.777922 q -0.98866,-0.05203 -3.07007,-0.104069 -2.02935,-0.05203 -4.00668,-0.05203 -3.17414,0 -5.61978,1.456975 -2.44565,1.404949 -3.85058,4.162801 -1.3529,2.75786 -1.3529,6.66049 v 28.1509 z m 57.23775,0.93663 q -5.51571,0 -9.78256,-1.7692 -4.21484,-1.82121 -6.66048,-5.41163 -2.39361,-3.64244 -2.39361,-9.1061 0,-4.63112 1.66513,-7.75322 1.66511,-3.17413 4.57906,-5.15144 2.96599,-1.97734 6.81658,-2.96601 3.90263,-1.04069 8.27357,-1.40494 4.89126,-0.41628 7.85725,-0.884592 2.96601,-0.520349 4.26687,-1.40495 1.30088,-0.936625 1.30088,-2.601746 v -0.260171 q 0,-1.66512 -0.93662,-2.861923 -0.93664,-1.248838 -2.6538,-1.925293 -1.71714,-0.728488 -4.05872,-0.728488 -2.49769,0 -4.3189,0.780523 -1.82122,0.728489 -2.86192,2.133432 -1.0407,1.352905 -1.24884,3.226164 h -16.65118 q 0.41628,-5.984015 3.48635,-10.198845 3.07005,-4.266865 8.6378,-6.504367 5.61977,-2.289537 13.5811,-2.289537 5.98403,0 10.56311,1.300873 4.63109,1.248839 7.80524,3.746516 3.17412,2.445643 4.78721,6.036052 1.61307,3.538376 1.61307,8.065414 v 36.996848 h -17.48373 v -7.70118 h -0.20814 q -1.66512,2.96601 -3.90261,4.89129 -2.23752,1.87326 -5.20349,2.80989 -2.966,0.93663 -6.86862,0.93663 z m 5.46366,-11.70786 q 2.966,0 5.35961,-1.14477 2.44564,-1.14476 3.85059,-3.12209 1.40494,-2.02937 1.40494,-4.73519 v -4.99536 q -0.7285,0.31221 -1.71716,0.62443 -0.98866,0.31221 -2.2375,0.57238 -1.1968,0.26017 -2.65378,0.52035 -1.45698,0.26018 -3.12209,0.57238 -2.39362,0.36426 -4.26688,1.14478 -1.82122,0.78052 -2.91395,2.08139 -1.04069,1.24884 -1.04069,3.07006 0,1.71716 0.93661,2.91396 0.93664,1.1968 2.54972,1.87326 1.66511,0.62442 3.85058,0.62442 z M 598.96482,78.26146 V 92.102754 H 560.35489 V 78.26146 Z M 569.72118,63.275398 h 17.95204 v 51.462572 q 0,2.65377 1.04071,3.64243 1.0407,0.98866 4.05872,0.98866 1.35291,0 3.33024,0 1.97733,0 2.86193,0 v 13.8413 q -1.40495,0 -4.26688,0 -2.86192,0 -5.87995,0 -9.88663,0 -14.51773,-3.69447 -4.57908,-3.74652 -4.57908,-11.7599 z m 60.68669,71.183802 q -8.42965,0 -14.82995,-3.64245 -6.34827,-3.69447 -9.93868,-10.19885 -3.53838,-6.50436 -3.53838,-14.88199 0,-8.377627 3.53838,-14.881995 3.59041,-6.504368 9.88664,-10.146812 6.29624,-3.694481 14.41368,-3.694481 6.19216,0 11.29157,2.081397 5.09943,2.029362 8.79392,5.827913 3.74651,3.798551 5.77587,9.002044 2.02937,5.15146 2.02937,11.395654 v 4.83925 H 607.92878 V 99.439687 h 41.52387 l -8.22152,2.185473 q 0,-3.53839 -1.30086,-6.088103 -1.30088,-2.54971 -3.74651,-3.902618 -2.39361,-1.404942 -5.77589,-1.404942 -3.38227,0 -5.82792,1.404942 -2.3936,1.352908 -3.74651,3.902618 -1.30086,2.549713 -1.30086,6.088103 v 7.9093 q 0,3.64245 1.35291,6.40029 1.40493,2.70582 3.95466,4.1628 2.60174,1.45698 6.19214,1.45698 2.65378,0 4.7352,-0.72849 2.08139,-0.72849 3.48632,-2.08139 1.40494,-1.35291 2.0814,-3.1221 h 16.0788 q -0.98868,5.5157 -4.78721,9.78256 -3.79856,4.21483 -9.57443,6.66047 -5.72384,2.39362 -12.6445,2.39362 z"
     id="text4"
     style="font-weight:800;font-size:96px;font-family:Inter, system-ui, '-apple-system', BlinkMacSystemFont, 'Segoe UI', sans-serif;letter-spacing:-1;fill:#1fb6b3;fill-opacity:1;stroke-width:1.11008"
     aria-label="Generate"
     clip-path="none" />
  <path
     id="rect11-31-8-5-9"
     style="fill:#1fb6b3;fill-opacity:1;stroke:none;stroke-width:10.3565;stroke-linejoin:round;stroke-dasharray:none;stroke-opacity:1"
     d="M 95.547395,0.74719365 C 94.936719,0.13651753 94.247681,-0.15849267 94.003409,0.08577883 L 0.0856384,94.00355 c -0.24427677,0.244276 0.05176569,0.932282 0.66244181,1.542958 L 93.343027,188.14145 c 0.610676,0.61068 1.297649,0.90569 1.541926,0.66141 l 11.783047,-11.78304 10.57441,-10.57441 -20.158229,1.27037 -0.0062,-0.10286 c -0.261193,0.14205 -0.572403,0.12133 -0.76839,-0.0751 L 39.632679,110.73127 24.172243,95.270832 C 23.714231,94.81282 23.4922,94.296816 23.675405,94.113612 L 94.113471,23.675546 c 0.183205,-0.183205 0.700241,0.03779 1.158253,0.495805 l 19.327086,19.327084 22.29574,-1.404088 z" />
  <path
     id="rect11-31-8-5-5-2-7"
     style="fill:#ffffff;fill-opacity:1;stroke:none;stroke-width:10.3565;stroke-linejoin:round;stroke-dasharray:none;stroke-opacity:1"
     d="m 154.4462,59.646003 -37.48564,2.361751 -17.064083,17.064082 69.591503,-4.384058 z m 32.59344,32.593431 -107.054516,6.743755 -12.744831,12.744831 4.064026,4.07456 1.353687,-0.0844 101.855774,-6.54419 14.34334,-14.34334 c 0.21377,-0.213773 0.11613,-0.657402 -0.22116,-0.994692 z m -32.57389,36.982636 -65.646678,4.1341 15.227968,15.26293 33.10672,-2.08504 z m -37.22334,37.22334 -0.4454,0.0278 0.20881,0.20881 z m -20.493565,1.29094 -0.127553,0.008 0.05966,0.0597 z" />
  <text
     xml:space="preserve"
     id="text3"
     style="font-style:normal;font-variant:normal;font-weight:normal;font-stretch:normal;font-size:56px;font-family:Inter;-inkscape-font-specification:'Inter, @opsz=32,wght=800';font-variant-ligatures:normal;font-variant-caps:normal;font-variant-numeric:normal;font-variant-east-asian:normal;font-variation-settings:'opsz' 32, 'wght' 800;writing-mode:lr-tb;direction:ltr;white-space:pre;shape-inside:url(#rect3);display:inline;fill:#0599ad;fill-opacity:1;stroke-width:20;stroke-linejoin:round" />
  <text
     xml:space="preserve"
     id="text6"
     style="font-style:normal;font-variant:normal;font-weight:normal;font-stretch:normal;font-size:56px;font-family:Inter;-inkscape-font-specification:'Inter, @opsz=32,wght=800';font-variant-ligatures:normal;font-variant-caps:normal;font-variant-numeric:normal;font-variant-east-asian:normal;font-variation-settings:'opsz' 32, 'wght' 800;writing-mode:lr-tb;direction:ltr;white-space:pre;shape-inside:url(#rect6);display:inline;fill:#0599ad;fill-opacity:1;stroke-width:20;stroke-linejoin:round" />
  <text
     xml:space="preserve"
     id="text7"
     style="font-style:normal;font-variant:normal;font-weight:normal;font-stretch:normal;font-size:56px;font-family:Inter;-inkscape-font-specification:'Inter, @opsz=32,wght=800';font-variant-ligatures:normal;font-variant-caps:normal;font-variant-numeric:normal;font-variant-east-asian:normal;font-variation-settings:'opsz' 32, 'wght' 800;writing-mode:lr-tb;direction:ltr;white-space:pre;shape-inside:url(#rect7);display:inline;fill:#0599ad;fill-opacity:1;stroke-width:20;stroke-linejoin:round" />
  <text
     xml:space="preserve"
     id="text8"
     style="font-style:normal;font-variant:normal;font-weight:normal;font-stretch:normal;font-size:64px;font-family:Inter;-inkscape-font-specification:'Inter, @opsz=32,wght=800';font-variant-ligatures:normal;font-variant-caps:normal;font-variant-numeric:normal;font-variant-east-asian:normal;font-variation-settings:'opsz' 32, 'wght' 800;writing-mode:lr-tb;direction:ltr;white-space:pre;shape-inside:url(#rect8);display:inline;fill:#0599ad;fill-opacity:1;stroke-width:20;stroke-linejoin:round"
     transform="translate(202.25555,151.74314)" />
  <text
     xml:space="preserve"
     id="text9"
     style="font-style:normal;font-variant:normal;font-weight:normal;font-stretch:normal;font-size:64px;font-family:Inter;-inkscape-font-specification:'Inter, @opsz=32,wght=800';font-variant-ligatures:normal;font-variant-caps:normal;font-variant-numeric:normal;font-variant-east-asian:normal;font-variation-settings:'opsz' 32, 'wght' 800;writing-mode:lr-tb;direction:ltr;white-space:pre;shape-inside:url(#rect9);display:inline;fill:#0599ad;fill-opacity:1;stroke-width:20;stroke-linejoin:round"
     transform="translate(202.25555,151.74314)"><tspan
       x="-20.09375"
       y="390.77648"
       id="tspan2"><tspan
         dx="0 45.15625 16.75 39.09375 17.137451 25.556274 36.3125 16.75 12.78125 42.75 16.75 39.09375 38.46875 36.3125 16.75 12.78125 17.25 38.46875 24.706299 36.59375 16.75 16.75 16.75 39.09375 36.59375 38.46875 36.375"
         id="tspan1">Digital Signal Intelligence</tspan></tspan></text>
  <path
     d="m 223.40538,208.67336 h -14.43751 v -10.93751 h 13.78126 q 4.9948,0 8.20313,-1.82292 3.24479,-1.82292 4.8125,-5.43229 1.56771,-3.64584 1.56771,-8.96876 0,-5.35937 -1.60417,-8.96875 -1.56771,-3.60938 -4.84896,-5.43229 -3.24479,-1.82292 -8.27604,-1.82292 h -13.85418 v -10.93751 h 14.65626 q 8.27605,0 14.36459,3.35417 6.125,3.31771 9.44271,9.40626 3.31771,6.08854 3.31771,14.40104 0,8.31251 -3.31771,14.40105 -3.28125,6.08855 -9.36979,9.44272 -6.05209,3.31771 -14.43751,3.31771 z m -7.03646,-54.32295 v 54.32295 h -13.12501 v -54.32295 z m 39.55731,54.32295 v -38.50002 h 12.54167 v 38.50002 z m 6.23438,-42.25523 q -3.02605,0 -4.95834,-1.78646 -1.93229,-1.78646 -1.93229,-4.5573 0,-2.77083 1.93229,-4.52083 1.93229,-1.78646 4.95834,-1.78646 3.02604,0 4.95833,1.78646 1.96875,1.75 1.96875,4.52083 0,2.77084 -1.96875,4.5573 -1.93229,1.78646 -4.95833,1.78646 z m 32.3021,58.00523 q -5.94272,0 -9.88022,-1.64062 -3.9375,-1.64063 -6.08854,-4.5573 -2.15104,-2.88021 -2.73438,-6.5625 h 11.9948 q 0.32812,1.16667 1.23958,2.04167 0.91146,0.875 2.29688,1.34896 1.38542,0.47396 3.17188,0.47396 3.5,0 5.32291,-1.96876 1.82292,-1.93229 1.82292,-5.76042 v -5.94271 h -0.0365 q -1.02083,2.26042 -2.66146,3.71876 -1.60416,1.45833 -3.75521,2.15104 -2.11458,0.69271 -4.63021,0.69271 -5.03125,0 -8.78646,-2.47917 -3.75521,-2.51563 -5.83333,-6.89063 -2.04167,-4.375 -2.04167,-10.02605 0,-5.72396 2.11458,-10.17188 2.11459,-4.44791 5.83334,-6.96354 3.71875,-2.55209 8.60417,-2.55209 2.51562,0 4.55729,0.72917 2.07813,0.69271 3.75521,2.07813 1.67709,1.38542 2.84375,3.42708 h 0.0365 v -5.39583 h 12.46876 v 36.38543 q 0,6.27084 -2.40625,10.20834 -2.3698,3.9375 -6.78126,5.79688 -4.41146,1.85937 -10.42708,1.85937 z m -0.4375,-25.84897 q 2.40625,0 4.19271,-1.20312 1.78645,-1.20313 2.77083,-3.39063 1.02083,-2.22396 1.02083,-5.17709 0,-2.95312 -1.02083,-5.14062 -0.98438,-2.1875 -2.77083,-3.39063 -1.78646,-1.20313 -4.19271,-1.20313 -2.26042,0 -3.97396,1.16667 -1.67709,1.16667 -2.58855,3.35417 -0.875,2.1875 -0.875,5.21354 0,3.06251 0.875,5.25001 0.91146,2.1875 2.58855,3.35416 1.71354,1.16667 3.97396,1.16667 z m 27.05209,10.09897 v -38.50002 h 12.54168 v 38.50002 z m 6.23438,-42.25523 q -3.02604,0 -4.95834,-1.78646 -1.93229,-1.78646 -1.93229,-4.5573 0,-2.77083 1.93229,-4.52083 1.9323,-1.78646 4.95834,-1.78646 3.02604,0 4.95834,1.78646 1.96875,1.75 1.96875,4.52083 0,2.77084 -1.96875,4.5573 -1.9323,1.78646 -4.95834,1.78646 z m 38.00412,3.75521 v 9.69792 h -27.05209 v -9.69792 z m -20.48959,-10.50001 h 12.57813 v 36.05731 q 0,1.85938 0.72917,2.55209 0.72917,0.6927 2.84375,0.6927 0.94792,0 2.33333,0 1.38542,0 2.00521,0 v 9.69793 q -0.98437,0 -2.98958,0 -2.00521,0 -4.11979,0 -6.92709,0 -10.17188,-2.58855 -3.20834,-2.625 -3.20834,-8.23959 z m 37.83651,49.65628 q -3.86458,0 -6.85417,-1.23959 -2.95312,-1.27604 -4.66667,-3.79167 -1.67708,-2.55208 -1.67708,-6.38021 0,-3.24479 1.16667,-5.43229 1.16666,-2.22396 3.20833,-3.60938 2.07813,-1.38542 4.77604,-2.07813 2.73438,-0.72916 5.79688,-0.98437 3.42709,-0.29167 5.50521,-0.61979 2.07813,-0.36459 2.98959,-0.98438 0.91146,-0.65625 0.91146,-1.82292 v -0.18229 q 0,-1.16666 -0.65625,-2.00521 -0.65625,-0.875 -1.85938,-1.34896 -1.20312,-0.51041 -2.84375,-0.51041 -1.75,0 -3.02604,0.54687 -1.27605,0.51042 -2.00521,1.49479 -0.72917,0.94792 -0.875,2.26042 h -11.66668 q 0.29167,-4.19271 2.44271,-7.14583 2.15105,-2.98959 6.05209,-4.5573 3.9375,-1.60417 9.51563,-1.60417 4.19271,0 7.40105,0.91146 3.24479,0.875 5.46875,2.625 2.22396,1.71355 3.35417,4.22917 1.1302,2.47917 1.1302,5.65105 v 25.92189 h -12.25 v -5.39584 h -0.14583 q -1.16667,2.07813 -2.73438,3.42708 -1.56771,1.3125 -3.64584,1.96876 -2.07812,0.65625 -4.8125,0.65625 z m 3.82813,-8.20313 q 2.07812,0 3.75521,-0.80209 1.71354,-0.80208 2.69792,-2.1875 0.98437,-1.42187 0.98437,-3.31771 v -3.5 q -0.51041,0.21875 -1.20312,0.4375 -0.69271,0.21875 -1.56771,0.40104 -0.83854,0.18229 -1.85938,0.36459 -1.02083,0.18229 -2.1875,0.40104 -1.67708,0.25521 -2.98958,0.80208 -1.27605,0.54688 -2.04167,1.45834 -0.72917,0.875 -0.72917,2.15104 0,1.20312 0.65625,2.04167 0.65625,0.83854 1.78646,1.3125 1.16667,0.4375 2.69792,0.4375 z m 39.30211,-46.77607 v 54.32295 h -12.54168 v -54.32295 z m 43.53127,55.19795 q -7.21876,0 -12.28647,-2.18751 -5.06771,-2.22395 -7.72917,-6.41667 -2.66146,-4.22916 -2.66146,-10.20833 h 12.50522 q 0.0729,2.58854 1.34895,4.44792 1.27605,1.85937 3.53646,2.84375 2.29688,0.98437 5.39584,0.98437 2.80729,0 4.84896,-0.72916 2.07813,-0.72917 3.20834,-2.04167 1.16666,-1.34896 1.16666,-3.13542 0,-1.53125 -0.98437,-2.66146 -0.94792,-1.16667 -3.02605,-2.00521 -2.04166,-0.875 -5.32291,-1.56771 l -5.57813,-1.13021 q -7.94792,-1.64062 -11.9948,-5.50521 -4.04688,-3.90104 -4.04688,-9.84375 0,-5.06771 2.66146,-8.85938 2.69792,-3.79167 7.51042,-5.90626 4.81251,-2.15104 11.19272,-2.15104 6.52604,0 11.22917,2.15104 4.70313,2.11459 7.29167,6.08855 2.625,3.97396 2.80729,9.55209 h -12.14063 q -0.25521,-3.39063 -2.69792,-5.32292 -2.40625,-1.93229 -6.30729,-1.93229 -2.44271,0 -4.375,0.72916 -1.89584,0.72917 -2.98959,2.04167 -1.05729,1.27604 -1.05729,2.98958 0,1.4948 0.91146,2.58855 0.91146,1.05729 2.84375,1.85937 1.93229,0.80209 5.03125,1.42188 l 4.77605,0.94792 q 4.52083,0.91146 7.76563,2.29687 3.28125,1.34896 5.35937,3.2448 2.11459,1.89583 3.09896,4.41146 1.02084,2.47916 1.02084,5.61458 0,5.46875 -2.66146,9.3698 -2.66146,3.86458 -7.65626,5.94271 -4.99479,2.07813 -11.99479,2.07813 z m 28.25522,-0.875 v -38.50002 h 12.54168 v 38.50002 z m 6.23438,-42.25523 q -3.02604,0 -4.95833,-1.78646 -1.9323,-1.78646 -1.9323,-4.5573 0,-2.77083 1.9323,-4.52083 1.93229,-1.78646 4.95833,-1.78646 3.02605,0 4.95834,1.78646 1.96875,1.75 1.96875,4.52083 0,2.77084 -1.96875,4.5573 -1.93229,1.78646 -4.95834,1.78646 z m 32.30208,58.00523 q -5.94271,0 -9.88021,-1.64062 -3.9375,-1.64063 -6.08855,-4.5573 -2.15104,-2.88021 -2.73437,-6.5625 h 11.99479 q 0.32813,1.16667 1.23959,2.04167 0.91146,0.875 2.29687,1.34896 1.38542,0.47396 3.17188,0.47396 3.5,0 5.32292,-1.96876 1.82292,-1.93229 1.82292,-5.76042 v -5.94271 h -0.0365 q -1.02083,2.26042 -2.66146,3.71876 -1.60417,1.45833 -3.75521,2.15104 -2.11458,0.69271 -4.63021,0.69271 -5.03125,0 -8.78646,-2.47917 -3.75521,-2.51563 -5.83334,-6.89063 -2.04167,-4.375 -2.04167,-10.02605 0,-5.72396 2.11459,-10.17188 2.11458,-4.44791 5.83333,-6.96354 3.71876,-2.55209 8.60417,-2.55209 2.51563,0 4.5573,0.72917 2.07812,0.69271 3.75521,2.07813 1.67708,1.38542 2.84375,3.42708 h 0.0365 v -5.39583 h 12.46875 v 36.38543 q 0,6.27084 -2.40625,10.20834 -2.36979,3.9375 -6.78125,5.79688 -4.41146,1.85937 -10.42709,1.85937 z m -0.4375,-25.84897 q 2.40625,0 4.19271,-1.20312 1.78646,-1.20313 2.77084,-3.39063 1.02083,-2.22396 1.02083,-5.17709 0,-2.95312 -1.02083,-5.14062 -0.98438,-2.1875 -2.77084,-3.39063 -1.78646,-1.20313 -4.19271,-1.20313 -2.26042,0 -3.97396,1.16667 -1.67708,1.16667 -2.58854,3.35417 -0.875,2.1875 -0.875,5.21354 0,3.06251 0.875,5.25001 0.91146,2.1875 2.58854,3.35416 1.71354,1.16667 3.97396,1.16667 z m 39.59378,-10.82813 v 20.9271 h -12.54167 v -38.50002 h 12.39584 v 10.31771 h -1.85938 q 1.78646,-5.10417 5.17709,-8.13021 3.39062,-3.02605 8.93229,-3.02605 4.19271,0 7.14584,1.82292 2.95312,1.78646 4.52083,5.17709 1.56771,3.39062 1.56771,8.13021 v 24.20835 h -12.54167 v -21.58335 q 0,-3.42708 -1.64063,-5.21354 -1.64062,-1.82292 -4.63021,-1.82292 -1.96875,0 -3.46354,0.83854 -1.45833,0.83854 -2.26042,2.55209 -0.80208,1.67708 -0.80208,4.30208 z m 44.11459,21.58335 q -3.86458,0 -6.85417,-1.23959 -2.95312,-1.27604 -4.66667,-3.79167 -1.67708,-2.55208 -1.67708,-6.38021 0,-3.24479 1.16667,-5.43229 1.16666,-2.22396 3.20833,-3.60938 2.07813,-1.38542 4.77605,-2.07813 2.73437,-0.72916 5.79687,-0.98437 3.42709,-0.29167 5.50521,-0.61979 2.07813,-0.36459 2.98959,-0.98438 0.91146,-0.65625 0.91146,-1.82292 v -0.18229 q 0,-1.16666 -0.65625,-2.00521 -0.65625,-0.875 -1.85938,-1.34896 -1.20312,-0.51041 -2.84375,-0.51041 -1.75,0 -3.02604,0.54687 -1.27605,0.51042 -2.00521,1.49479 -0.72917,0.94792 -0.875,2.26042 h -11.66668 q 0.29167,-4.19271 2.44271,-7.14583 2.15105,-2.98959 6.05209,-4.5573 3.9375,-1.60417 9.51563,-1.60417 4.19271,0 7.40105,0.91146 3.24479,0.875 5.46875,2.625 2.22396,1.71355 3.35417,4.22917 1.1302,2.47917 1.1302,5.65105 v 25.92189 h -12.25 v -5.39584 h -0.14583 q -1.16667,2.07813 -2.73438,3.42708 -1.56771,1.3125 -3.64584,1.96876 -2.07812,0.65625 -4.8125,0.65625 z m 3.82813,-8.20313 q 2.07812,0 3.75521,-0.80209 1.71354,-0.80208 2.69792,-2.1875 0.98437,-1.42187 0.98437,-3.31771 v -3.5 q -0.51041,0.21875 -1.20312,0.4375 -0.69271,0.21875 -1.56771,0.40104 -0.83854,0.18229 -1.85938,0.36459 -1.02083,0.18229 -2.1875,0.40104 -1.67708,0.25521 -2.98958,0.80208 -1.27605,0.54688 -2.04167,1.45834 -0.72917,0.875 -0.72917,2.15104 0,1.20312 0.65625,2.04167 0.65625,0.83854 1.78646,1.3125 1.16667,0.4375 2.69792,0.4375 z m 39.30212,-46.77607 v 54.32295 h -12.54167 v -54.32295 z m 35.03646,0 v 54.32295 h -13.12501 v -54.32295 z m 19.5417,33.39585 v 20.9271 h -12.54168 v -38.50002 h 12.39584 v 10.31771 h -1.85937 q 1.78646,-5.10417 5.17708,-8.13021 3.39063,-3.02605 8.9323,-3.02605 4.19271,0 7.14584,1.82292 2.95312,1.78646 4.52083,5.17709 1.56771,3.39062 1.56771,8.13021 v 24.20835 h -12.54167 v -21.58335 q 0,-3.42708 -1.64063,-5.21354 -1.64062,-1.82292 -4.63021,-1.82292 -1.96875,0 -3.46354,0.83854 -1.45834,0.83854 -2.26042,2.55209 -0.80208,1.67708 -0.80208,4.30208 z m 56.58335,-17.57292 v 9.69792 h -27.0521 v -9.69792 z m -20.4896,-10.50001 h 12.57813 v 36.05731 q 0,1.85938 0.72917,2.55209 0.72917,0.6927 2.84375,0.6927 0.94792,0 2.33334,0 1.38541,0 2.00521,0 v 9.69793 q -0.98438,0 -2.98959,0 -2.00521,0 -4.11979,0 -6.92709,0 -10.17188,-2.58855 -3.20834,-2.625 -3.20834,-8.23959 z m 43.298,49.87503 q -5.90625,0 -10.39063,-2.55209 -4.44791,-2.58854 -6.96354,-7.14584 -2.47917,-4.55729 -2.47917,-10.42708 0,-5.8698 2.47917,-10.42709 2.51563,-4.5573 6.92709,-7.10938 4.41146,-2.58854 10.09896,-2.58854 4.33854,0 7.91146,1.45833 3.57292,1.42188 6.16146,4.08334 2.625,2.66146 4.04688,6.30729 1.42187,3.60938 1.42187,7.98438 v 3.39063 h -34.96355 v -7.51042 h 29.09376 l -5.76042,1.53125 q 0,-2.47917 -0.91146,-4.26563 -0.91146,-1.78646 -2.625,-2.73438 -1.67708,-0.98437 -4.04688,-0.98437 -2.36979,0 -4.08333,0.98437 -1.67709,0.94792 -2.625,2.73438 -0.91146,1.78646 -0.91146,4.26563 v 5.54167 q 0,2.55208 0.94792,4.48437 0.98437,1.89584 2.77083,2.91667 1.82292,1.02083 4.33854,1.02083 1.85938,0 3.31771,-0.51041 1.45834,-0.51042 2.44271,-1.45834 0.98438,-0.94791 1.45834,-2.1875 h 11.26563 q -0.69271,3.86459 -3.35417,6.85417 -2.66146,2.95313 -6.70834,4.66667 -4.01042,1.67709 -8.85938,1.67709 z m 37.00525,-55.19795 v 54.32295 h -12.54167 v -54.32295 z m 19.54163,0 v 54.32295 h -12.54168 v -54.32295 z m 7.00001,54.32295 v -38.50002 h 12.54167 v 38.50002 z m 6.23438,-42.25523 q -3.02604,0 -4.95834,-1.78646 -1.93229,-1.78646 -1.93229,-4.5573 0,-2.77083 1.93229,-4.52083 1.9323,-1.78646 4.95834,-1.78646 3.02604,0 4.95833,1.78646 1.96876,1.75 1.96876,4.52083 0,2.77084 -1.96876,4.5573 -1.93229,1.78646 -4.95833,1.78646 z m 32.30211,58.00523 q -5.94271,0 -9.88021,-1.64062 -3.93751,-1.64063 -6.08855,-4.5573 -2.15104,-2.88021 -2.73438,-6.5625 h 11.9948 q 0.32813,1.16667 1.23959,2.04167 0.91145,0.875 2.29687,1.34896 1.38542,0.47396 3.17188,0.47396 3.5,0 5.32292,-1.96876 1.82291,-1.93229 1.82291,-5.76042 v -5.94271 h -0.0364 q -1.02084,2.26042 -2.66146,3.71876 -1.60417,1.45833 -3.75521,2.15104 -2.11459,0.69271 -4.63021,0.69271 -5.03126,0 -8.78647,-2.47917 -3.75521,-2.51563 -5.83333,-6.89063 -2.04167,-4.375 -2.04167,-10.02605 0,-5.72396 2.11458,-10.17188 2.11459,-4.44791 5.83334,-6.96354 3.71875,-2.55209 8.60417,-2.55209 2.51563,0 4.5573,0.72917 2.07812,0.69271 3.75521,2.07813 1.67708,1.38542 2.84375,3.42708 h 0.0364 v -5.39583 h 12.46876 v 36.38543 q 0,6.27084 -2.40625,10.20834 -2.36979,3.9375 -6.78125,5.79688 -4.41146,1.85937 -10.42709,1.85937 z m -0.4375,-25.84897 q 2.40625,0 4.19271,-1.20312 1.78646,-1.20313 2.77083,-3.39063 1.02084,-2.22396 1.02084,-5.17709 0,-2.95312 -1.02084,-5.14062 -0.98437,-2.1875 -2.77083,-3.39063 -1.78646,-1.20313 -4.19271,-1.20313 -2.26042,0 -3.97396,1.16667 -1.67709,1.16667 -2.58855,3.35417 -0.875,2.1875 -0.875,5.21354 0,3.06251 0.875,5.25001 0.91146,2.1875 2.58855,3.35416 1.71354,1.16667 3.97396,1.16667 z m 45.28125,10.97397 q -5.90626,0 -10.39063,-2.55209 -4.44792,-2.58854 -6.96355,-7.14584 -2.47917,-4.55729 -2.47917,-10.42708 0,-5.8698 2.47917,-10.42709 2.51563,-4.5573 6.92709,-7.10938 4.41146,-2.58854 10.09896,-2.58854 4.33855,0 7.91146,1.45833 3.57292,1.42188 6.16147,4.08334 2.625,2.66146 4.04687,6.30729 1.42188,3.60938 1.42188,7.98438 v 3.39063 h -34.96356 v -7.51042 h 29.09376 l -5.76042,1.53125 q 0,-2.47917 -0.91145,-4.26563 -0.91146,-1.78646 -2.62501,-2.73438 -1.67708,-0.98437 -4.04687,-0.98437 -2.3698,0 -4.08334,0.98437 -1.67708,0.94792 -2.625,2.73438 -0.91146,1.78646 -0.91146,4.26563 v 5.54167 q 0,2.55208 0.94792,4.48437 0.98438,1.89584 2.77083,2.91667 1.82292,1.02083 4.33855,1.02083 1.85937,0 3.31771,-0.51041 1.45833,-0.51042 2.44271,-1.45834 0.98437,-0.94791 1.45833,-2.1875 h 11.26563 q -0.69271,3.86459 -3.35417,6.85417 -2.66146,2.95313 -6.70833,4.66667 -4.01042,1.67709 -8.85938,1.67709 z m 37.00524,-21.8021 v 20.9271 h -12.54167 v -38.50002 h 12.39584 v 10.31771 h -1.85938 q 1.78646,-5.10417 5.17709,-8.13021 3.39063,-3.02605 8.9323,-3.02605 4.19271,0 7.14583,1.82292 2.95308,1.78646 4.52088,5.17709 1.5677,3.39062 1.5677,8.13021 v 24.20835 h -12.5417 v -21.58335 q 0,-3.42708 -1.64063,-5.21354 -1.64063,-1.82292 -4.63021,-1.82292 -1.96875,0 -3.46354,0.83854 -1.45834,0.83854 -2.26042,2.55209 -0.80209,1.67708 -0.80209,4.30208 z m 50.64069,21.8021 q -5.9427,0 -10.4271,-2.51563 -4.4844,-2.55209 -7,-7.07292 -2.4792,-4.52084 -2.4792,-10.53646 0,-5.97917 2.4792,-10.50001 2.5156,-4.55729 7,-7.07292 4.4844,-2.55208 10.4271,-2.55208 4.0104,0 7.3646,1.16666 3.3906,1.16667 5.8698,3.31771 2.5156,2.11459 3.9739,5.06771 1.4584,2.91667 1.6771,6.45313 h -12.1042 q -0.1458,-1.34896 -0.6562,-2.47917 -0.5104,-1.1302 -1.3854,-1.93229 -0.8386,-0.80208 -1.9688,-1.20312 -1.1302,-0.4375 -2.5156,-0.4375 -2.3333,0 -4.0104,1.23958 -1.6771,1.20313 -2.5521,3.5 -0.875,2.29688 -0.875,5.4323 0,3.13541 0.875,5.43229 0.875,2.29688 2.5521,3.53646 1.6771,1.20313 4.0104,1.20313 1.3854,0 2.5156,-0.40105 1.1302,-0.4375 1.9323,-1.23958 0.8386,-0.83854 1.349,-1.96875 0.5104,-1.16667 0.6927,-2.55209 h 12.1406 q -0.1094,3.53646 -1.5312,6.48959 -1.4219,2.91667 -3.9375,5.10417 -2.5157,2.15104 -5.9428,3.35417 -3.3906,1.16667 -7.4739,1.16667 z m 42.3646,0 q -5.9063,0 -10.3907,-2.55209 -4.4479,-2.58854 -6.9635,-7.14584 -2.4792,-4.55729 -2.4792,-10.42708 0,-5.8698 2.4792,-10.42709 2.5156,-4.5573 6.9271,-7.10938 4.4114,-2.58854 10.0989,-2.58854 4.3386,0 7.9115,1.45833 3.5729,1.42188 6.1615,4.08334 2.625,2.66146 4.0468,6.30729 1.4219,3.60938 1.4219,7.98438 v 3.39063 h -34.9635 v -7.51042 h 29.0937 l -5.7604,1.53125 q 0,-2.47917 -0.9115,-4.26563 -0.9114,-1.78646 -2.625,-2.73438 -1.677,-0.98437 -4.0468,-0.98437 -2.3698,0 -4.0834,0.98437 -1.6771,0.94792 -2.625,2.73438 -0.9114,1.78646 -0.9114,4.26563 v 5.54167 q 0,2.55208 0.9479,4.48437 0.9844,1.89584 2.7708,2.91667 1.8229,1.02083 4.3386,1.02083 1.8593,0 3.3177,-0.51041 1.4583,-0.51042 2.4427,-1.45834 0.9844,-0.94791 1.4583,-2.1875 h 11.2656 q -0.6927,3.86459 -3.3541,6.85417 -2.6615,2.95313 -6.7084,4.66667 -4.0104,1.67709 -8.8593,1.67709 z"
     id="text10"
     style="font-size:74.6667px;font-family:Inter;-inkscape-font-specification:'Inter, @opsz=32,wght=800';font-variation-settings:'opsz' 32, 'wght' 800;fill:#1fb6b3;stroke-width:20;stroke-linejoin:round;fill-opacity:1"
     aria-label="Digital Signal Intelligence" />
</svg>
