<svg width="96" height="96" xmlns="http://www.w3.org/2000/svg" xmlns:xlink="http://www.w3.org/1999/xlink" xml:space="preserve" overflow="hidden"><g transform="translate(-879 -295)"><path d="M930.2 316C930.2 309.9 925.3 305 919.2 305 913.1 305 908.2 309.9 908.2 316 908.2 319.1 909.5 322 911.7 324.1L911.7 318.8C910.2 314.7 912.3 310.1 916.4 308.5 920.5 306.9 925.1 309.1 926.7 313.2 927.4 315 927.4 317 926.7 318.8L926.7 324C928.9 322 930.2 319 930.2 316Z" fill="#39D3BA"/><path d="M919.2 299C909.8 299 902.2 306.6 902.2 316 902.2 322.5 905.9 328.4 911.7 331.3L911.7 327.9C905.2 323.8 903.2 315.1 907.4 308.6 911.6 302.1 920.1 300 926.7 304.2 933.3 308.4 935.2 317 931 323.5 929.9 325.2 928.4 326.7 926.7 327.8L926.7 331.2C935.1 327.1 938.6 316.9 934.5 308.5 931.6 302.7 925.6 299 919.2 299Z" fill="#39D3BA"/><path d="M914.7 316 914.7 359.7 914.7 359.7 910.9 343C910.3 340.6 907.9 339.1 905.5 339.6 903.1 340.2 901.6 342.5 902.1 344.9L907.5 369.3C907.7 370.3 908.3 371.3 909.2 371.9L919.2 379.6 919.2 386.4 945.4 386.4 945.4 382C945.4 375.6 952.6 375.1 952.6 363L952.6 346.7C952.6 343.7 950.2 341.3 947.2 341.3 945.8 341.3 944.5 341.8 943.5 342.7 943.5 342.5 943.5 342.4 943.5 342.2 943.5 339.2 941.1 336.8 938.1 336.8 936.7 336.8 935.3 337.3 934.3 338.3 933.6 335.4 930.7 333.5 927.8 334.2 925.3 334.8 923.6 336.9 923.6 339.4L923.5 339.4 923.5 316C923.5 313.5 921.5 311.5 919 311.5 916.7 311.5 914.7 313.5 914.7 316Z" fill="#39D3BA"/></g></svg>
