<?xml version="1.0" encoding="UTF-8" standalone="no"?>
<svg
   viewBox="0 0 900 200"
   width="900"
   height="200"
   version="1.1"
   id="svg4"
   sodipodi:docname="Standard_Generate_Logo.svg"
   inkscape:version="1.4.3 (0d15f75, 2025-12-25)"
   xmlns:inkscape="http://www.inkscape.org/namespaces/inkscape"
   xmlns:sodipodi="http://sodipodi.sourceforge.net/DTD/sodipodi-0.dtd"
   xmlns="http://www.w3.org/2000/svg"
   xmlns:svg="http://www.w3.org/2000/svg">
  <defs
     id="defs4" />
  <sodipodi:namedview
     id="namedview4"
     pagecolor="#505050"
     bordercolor="#eeeeee"
     borderopacity="1"
     inkscape:showpageshadow="0"
     inkscape:pageopacity="0"
     inkscape:pagecheckerboard="0"
     inkscape:deskcolor="#505050"
     inkscape:zoom="1.1944444"
     inkscape:cx="360.83721"
     inkscape:cy="340.32558"
     inkscape:window-width="2256"
     inkscape:window-height="1470"
     inkscape:window-x="-11"
     inkscape:window-y="-11"
     inkscape:window-maximized="1"
     inkscape:current-layer="svg4"
     showguides="true">
    <sodipodi:guide
       position="-240.27907,125.48837"
       orientation="1,0"
       id="guide14"
       inkscape:locked="false" />
  </sodipodi:namedview>
  <!-- Icon -->
  <!-- Wordmark -->
  <g
     id="g15"
     transform="matrix(0.74481376,0,0,0.74481376,154.55595,24.806223)"
     clip-path="none">
    <path
       d="m 272.55569,154.21373 q -15.09042,0 -26.40823,-6.63698 -11.3178,-6.637 -17.60548,-18.72329 -6.28766,-12.08631 -6.28766,-28.29454 0,-16.97671 6.56712,-28.993149 6.56713,-12.086301 17.88493,-18.443837 11.31781,-6.357534 25.43014,-6.357534 9.22191,0 17.32603,2.654795 8.1041,2.654794 14.39178,7.615068 6.28768,4.890412 10.2,11.667124 3.98219,6.776713 4.82053,15.090411 H 293.305 q -0.69864,-3.493149 -2.37535,-6.28767 -1.67671,-2.794521 -4.26163,-4.750686 -2.58494,-1.956164 -6.00822,-3.00411 -3.42329,-1.047945 -7.61507,-1.047945 -8.10412,0 -13.83289,3.842466 -5.65889,3.772603 -8.66301,10.898631 -3.0041,7.056165 -3.0041,17.116436 0,9.99042 3.0041,17.11645 3.07397,7.05616 8.80273,10.82877 5.79866,3.77259 13.97261,3.77259 6.70686,0 11.59726,-2.30546 4.89042,-2.30549 7.47535,-6.4274 2.65481,-4.19178 2.65481,-9.71097 l 5.58903,0.48904 H 274.23239 V 95.878101 h 45.41098 v 14.112339 q 0,13.20411 -6.00822,23.19453 -5.93837,9.92054 -16.55754,15.50959 -10.54932,5.51917 -24.52192,5.51917 z m 91.77671,0 q -11.3178,0 -19.91095,-4.89042 -8.52329,-4.96026 -13.34385,-13.69315 -4.75069,-8.73287 -4.75069,-19.98082 0,-11.24795 4.75069,-19.980828 4.82056,-8.732878 13.27397,-13.623288 8.45344,-4.960275 19.35207,-4.960275 8.31369,0 15.16027,2.794521 6.84657,2.724657 11.80686,7.824657 5.03013,5.100001 7.75478,12.086303 2.72467,6.91644 2.72467,15.30001 v 6.49726 h -66.99864 v -14.39178 h 55.75067 l -11.03834,2.93425 q 0,-4.7507 -1.74657,-8.17399 -1.74658,-3.423285 -5.03014,-5.239723 -3.2137,-1.8863 -7.7548,-1.8863 -4.5411,0 -7.82465,1.8863 -3.21371,1.816438 -5.03015,5.239723 -1.74656,3.42329 -1.74656,8.17399 v 10.61917 q 0,4.89042 1.81644,8.59314 1.88629,3.63288 5.30959,5.58905 3.49315,1.95617 8.31369,1.95617 3.56301,0 6.35754,-0.97809 2.79452,-0.97808 4.68081,-2.79451 1.88631,-1.81644 2.79453,-4.19179 h 21.58767 q -1.32739,7.40548 -6.42739,13.13424 -5.10001,5.65891 -12.8548,8.94247 -7.68493,3.21371 -16.97672,3.21371 z m 69.42055,-41.7781 v 40.10139 H 409.72007 V 78.761661 h 23.75344 v 19.771235 h -3.56303 q 3.4233,-9.780823 9.92054,-15.579452 6.49728,-5.798631 17.11647,-5.798631 8.03424,0 13.69314,3.493151 5.6589,3.423287 8.66303,9.920548 3.00409,6.49726 3.00409,15.579458 v 46.38905 h -24.03288 v -41.35891 q 0,-6.56713 -3.14382,-9.99042 -3.14385,-3.49315 -8.87261,-3.49315 -3.77261,0 -6.637,1.606849 -2.79451,1.606851 -4.33149,4.890411 -1.537,3.21371 -1.537,8.24383 z m 95.40959,41.7781 q -11.31781,0 -19.91094,-4.89042 -8.5233,-4.96026 -13.34386,-13.69315 -4.75068,-8.73287 -4.75068,-19.98082 0,-11.24795 4.75068,-19.980828 4.82056,-8.732878 13.27398,-13.623288 8.45343,-4.960275 19.35207,-4.960275 8.31368,0 15.16026,2.794521 6.84658,2.724657 11.80686,7.824657 5.03013,5.100001 7.75479,12.086303 2.72466,6.91644 2.72466,15.30001 v 6.49726 h -66.99864 v -14.39178 h 55.75068 l -11.03835,2.93425 q 0,-4.7507 -1.74657,-8.17399 -1.74659,-3.423285 -5.03015,-5.239723 -3.21368,-1.8863 -7.75479,-1.8863 -4.54108,0 -7.82465,1.8863 -3.21371,1.816438 -5.03015,5.239723 -1.74656,3.42329 -1.74656,8.17399 v 10.61917 q 0,4.89042 1.81644,8.59314 1.88629,3.63288 5.30958,5.58905 3.49316,1.95617 8.31371,1.95617 3.56301,0 6.35752,-0.97809 2.79454,-0.97808 4.68083,-2.79451 1.88631,-1.81644 2.79451,-4.19179 h 21.58769 q -1.32741,7.40548 -6.4274,13.13424 -5.1,5.65891 -12.8548,8.94247 -7.68493,3.21371 -16.97672,3.21371 z m 45.38769,-1.67671 V 78.761661 h 23.26437 v 12.994522 h 0.20959 q 2.02602,-7.056165 6.28769,-10.130137 4.33149,-3.143836 11.73698,-3.143836 1.95616,0 3.49315,0.06985 1.60684,0 3.07396,0.06985 v 19.841096 q -1.32739,-0.06985 -4.12192,-0.139725 -2.72464,-0.06985 -5.37944,-0.06985 -4.26166,0 -7.54522,1.956159 -3.28357,1.88631 -5.16985,5.58905 -1.81643,3.70274 -1.81643,8.94248 v 37.7959 z m 76.8484,1.25753 q -7.40548,0 -13.13424,-2.37536 -5.65891,-2.44519 -8.94247,-7.26574 -3.21371,-4.89041 -3.21371,-12.22602 0,-6.21782 2.23564,-10.4096 2.23561,-4.26164 6.14793,-6.91642 3.98219,-2.65481 9.15205,-3.98222 5.23974,-1.39724 11.10824,-1.88629 6.5671,-0.5589 10.54929,-1.18767 3.98221,-0.69863 5.72877,-1.88631 1.74658,-1.25753 1.74658,-3.49315 v -0.34931 q 0,-2.23562 -1.25752,-3.842469 -1.25754,-1.676711 -3.56303,-2.584931 -2.30547,-0.978082 -5.44931,-0.978082 -3.35344,0 -5.79863,1.047945 -2.44521,0.978082 -3.84247,2.864383 -1.39726,1.816434 -1.67671,4.331504 h -22.35617 q 0.5589,-8.034243 4.68083,-13.693148 4.12191,-5.728767 11.59727,-8.732877 7.5452,-3.073972 18.23422,-3.073972 8.03427,0 14.18222,1.746575 6.21778,1.676712 10.47945,5.030137 4.26163,3.283563 6.42739,8.10411 2.16574,4.750685 2.16574,10.828765 v 49.67262 h -23.47396 v -10.33974 h -0.27946 q -2.23562,3.98221 -5.23971,6.56713 -3.00413,2.51507 -6.9863,3.77261 -3.9822,1.25753 -9.22193,1.25753 z m 7.33561,-15.71918 q 3.9822,0 7.19591,-1.53699 3.28355,-1.53697 5.16986,-4.19177 1.8863,-2.72466 1.8863,-6.35754 v -6.70686 q -0.97809,0.41918 -2.30549,0.83837 -1.32739,0.41917 -3.00411,0.76849 -1.60684,0.34931 -3.563,0.69863 -1.95617,0.34932 -4.19178,0.76849 -3.21371,0.48905 -5.72879,1.537 -2.4452,1.04793 -3.91232,2.79451 -1.39725,1.67671 -1.39725,4.12191 0,2.30549 1.25752,3.91234 1.25754,1.60684 3.42329,2.51507 2.23561,0.83835 5.16986,0.83835 z M 754.98221,78.761661 V 97.345225 H 703.14384 V 78.761661 Z M 715.71918,58.641112 h 24.10273 v 69.094548 q 0,3.563 1.39727,4.89039 1.39726,1.3274 5.44931,1.3274 1.81644,0 4.47124,0 2.65479,0 3.84248,0 v 18.58357 q -1.88632,0 -5.72879,0 -3.84247,0 -7.89452,0 -13.27397,0 -19.49177,-4.96027 -6.14795,-5.03014 -6.14795,-15.78904 z m 81.47902,95.572618 q -11.3178,0 -19.91095,-4.89042 -8.5233,-4.96026 -13.34385,-13.69315 -4.75069,-8.73287 -4.75069,-19.98082 0,-11.24795 4.75069,-19.980828 4.82055,-8.732878 13.27397,-13.623288 8.45345,-4.960275 19.35206,-4.960275 8.3137,0 15.16026,2.794521 6.84659,2.724657 11.80688,7.824657 5.03013,5.100001 7.75478,12.086303 2.72466,6.91644 2.72466,15.30001 v 6.49726 h -66.99864 v -14.39178 h 55.75068 l -11.03836,2.93425 q 0,-4.7507 -1.74655,-8.17399 -1.74659,-3.423285 -5.03013,-5.239723 -3.21371,-1.8863 -7.75481,-1.8863 -4.5411,0 -7.82467,1.8863 -3.21369,1.816438 -5.03013,5.239723 -1.74656,3.42329 -1.74656,8.17399 v 10.61917 q 0,4.89042 1.81644,8.59314 1.88629,3.63288 5.30959,5.58905 3.49315,1.95617 8.31368,1.95617 3.56302,0 6.35756,-0.97809 2.79451,-0.97808 4.6808,-2.79451 1.8863,-1.81644 2.79452,-4.19179 h 21.58768 q -1.32742,7.40548 -6.42739,13.13424 -5.10001,5.65891 -12.8548,8.94247 -7.68493,3.21371 -16.97672,3.21371 z"
       id="text4"
       style="font-weight:800;font-size:96px;font-family:Inter, system-ui, '-apple-system', BlinkMacSystemFont, 'Segoe UI', sans-serif;letter-spacing:-1;fill:#0599ad;fill-opacity:1;stroke-width:1.49041"
       aria-label="Generate"
       clip-path="none" />
    <g
       id="g14"
       transform="rotate(45,650.06463,-166.77185)">
      <path
         id="rect11-31-8-5-9"
         style="fill:#0599ad;fill-opacity:1;stroke:none;stroke-width:13.9048;stroke-linejoin:round;stroke-dasharray:none;stroke-opacity:1"
         d="m 346.34956,337 c -1.15952,0 -2.09375,0.37408 -2.09375,0.83789 v 178.32617 c 0,0.46382 0.93423,0.83594 2.09375,0.83594 h 175.81446 c 1.15952,0 2.09179,-0.37212 2.09179,-0.83594 v -22.37304 -20.07813 l -17.93164,20.34375 -0.10351,-0.0918 c -0.11311,0.38283 -0.42823,0.65862 -0.80078,0.6582 L 397.6816,494.49999 h -29.35547 c -0.86965,0 -1.57032,-0.27909 -1.57032,-0.62695 V 360.12891 c 0,-0.34786 0.70067,-0.62891 1.57032,-0.62891 h 36.69726 L 424.85738,337 Z" />
      <path
         id="rect11-31-8-5-5-2-7"
         style="fill:#39d3ba;fill-opacity:1;stroke:none;stroke-width:13.9048;stroke-linejoin:round;stroke-dasharray:none;stroke-opacity:1"
         d="m 458.18355,337 -33.34571,37.83008 v 32.40039 L 486.74409,337 Z m 61.88671,0 -95.23242,108.03711 v 24.19922 l 7.72656,0.01 1.20508,-1.36523 90.48633,-102.91211 v -27.23438 c 0,-0.4059 -0.51387,-0.73437 -1.1543,-0.73437 z m 4.18555,66.03515 -58.39844,66.24805 28.94727,0.0332 29.45117,-33.41015 z m 0,70.67774 -0.39648,0.44922 h 0.39648 z m -18.23047,20.68164 -0.11328,0.12891 h 0.11328 z" />
    </g>
  </g>
</svg>
